<svg width="42" height="42" viewBox="0 0 42 42" fill="none" xmlns="http://www.w3.org/2000/svg">
<g id="24 / software / cloud">
<path id="icon" fill-rule="evenodd" clip-rule="evenodd" d="M31.5 33.25C36.3325 33.25 40.25 29.3325 40.25 24.5C40.25 20.0987 37.0004 16.4563 32.7695 15.8414C31.2813 10.6848 26.5276 7 21 7C16.8935 7 13.1408 9.03888 10.8848 12.338C5.7173 13.0086 1.75 17.4278 1.75 22.75C1.75 28.549 6.45101 33.25 12.25 33.25H31.5ZM36.75 24.5C36.75 27.3995 34.3995 29.75 31.5 29.75H12.25C8.38401 29.75 5.25 26.616 5.25 22.75C5.25 18.9883 8.22385 15.9025 11.9694 15.7555L12.9337 15.7176L13.4162 14.882C14.97 12.1913 17.8367 10.5 21 10.5C25.2895 10.5 28.9281 13.6085 29.6291 17.7908L29.8791 19.2818L31.3906 19.2511C31.4178 19.2506 31.4315 19.2504 31.4451 19.2503C31.4588 19.2501 31.4725 19.2501 31.5 19.25C34.3995 19.25 36.75 21.6005 36.75 24.5Z" fill="#EDF2F4"/>
</g>
</svg>
