<svg width="42" height="42" viewBox="0 0 42 42" fill="none" xmlns="http://www.w3.org/2000/svg">
<g id="directions_run">
<mask id="mask0_37_124" style="mask-type:alpha" maskUnits="userSpaceOnUse" x="0" y="0" width="42" height="42">
<rect id="Bounding box" width="42" height="42" fill="#D9D9D9"/>
</mask>
<g mask="url(#mask0_37_124)">
<path id="directions_run_2" d="M23.4281 38.8063V29.7063L18.6593 25.3531L17.0843 32.3094C16.9978 32.6629 16.8157 32.93 16.5382 33.1105C16.2606 33.291 15.9541 33.3448 15.6187 33.2719L6.58435 31.4125C6.26351 31.3542 6.00466 31.1865 5.80778 30.9094C5.61091 30.6323 5.54893 30.3261 5.62185 29.9906C5.68018 29.6698 5.85153 29.4255 6.13591 29.2578C6.42028 29.0901 6.7156 29.0354 7.02185 29.0938L14.5031 30.5594L17.7406 14.3719L13.2562 16.4938V21.0438C13.2562 21.4011 13.1334 21.7018 12.8876 21.9461C12.6419 22.1904 12.3466 22.3125 12.0017 22.3125C11.6422 22.3125 11.3422 22.1904 11.1015 21.9461C10.8609 21.7018 10.7406 21.4011 10.7406 21.0438V15.5969C10.7406 15.3393 10.808 15.1063 10.9429 14.8981C11.0778 14.6899 11.2656 14.5291 11.5062 14.4156L17.8718 11.7906C18.776 11.3969 19.425 11.149 19.8187 11.0469C20.2125 10.9448 20.6004 10.8938 20.9825 10.8938C21.5629 10.8938 22.0755 11.0141 22.5203 11.2547C22.9651 11.4953 23.3406 11.8563 23.6468 12.3375L25.4843 15.2469C26.1552 16.3261 27.0302 17.2813 28.1093 18.1125C29.1885 18.9438 30.4427 19.4688 31.8718 19.6875C32.2291 19.7652 32.5263 19.923 32.7633 20.1609C33.0002 20.3987 33.1187 20.6819 33.1187 21.0104C33.1187 21.3535 32.9977 21.6526 32.7556 21.9078C32.5134 22.163 32.2334 22.2615 31.9156 22.2031C30.2677 22.0427 28.7838 21.5104 27.464 20.6063C26.1442 19.7021 24.901 18.4333 23.7343 16.8L21.9843 23.8438L25.5281 27.125C25.6593 27.2432 25.7614 27.3816 25.8343 27.5402C25.9073 27.6989 25.9437 27.8667 25.9437 28.0438V38.8063C25.9437 39.1636 25.8209 39.4643 25.5751 39.7086C25.3294 39.9529 25.0341 40.075 24.6892 40.075C24.3297 40.075 24.0297 39.9529 23.789 39.7086C23.5484 39.4643 23.4281 39.1636 23.4281 38.8063ZM23.6066 9.07814C22.7438 9.07814 22.0026 8.76941 21.3828 8.15195C20.763 7.53446 20.4531 6.79436 20.4531 5.93164C20.4531 5.06889 20.7618 4.32762 21.3793 3.70782C21.9968 3.08803 22.7369 2.77814 23.5996 2.77814C24.4623 2.77814 25.2036 3.08687 25.8234 3.70432C26.4432 4.32181 26.7531 5.06192 26.7531 5.92464C26.7531 6.78739 26.4444 7.52866 25.8269 8.14845C25.2094 8.76824 24.4693 9.07814 23.6066 9.07814Z" fill="#EDF2F4"/>
</g>
</g>
</svg>
