<svg width="32" height="32" viewBox="0 0 42 42" fill="none" xmlns="http://www.w3.org/2000/svg">
<g id="Wind 1">
<path id="Vector" d="M16.7825 8.03253C17.189 7.62358 17.6903 7.32141 18.2418 7.15288C18.7932 6.98435 19.3778 6.95468 19.9435 7.06651C20.5092 7.17835 21.0385 7.42822 21.4843 7.79391C21.9302 8.1596 22.2788 8.62979 22.4991 9.16267C22.7194 9.69555 22.8047 10.2746 22.7473 10.8484C22.6899 11.4222 22.4917 11.9729 22.1701 12.4516C21.8486 12.9302 21.4138 13.3221 20.9044 13.5922C20.3949 13.8624 19.8266 14.0025 19.25 14H3.5M22.0325 33.9675C22.439 34.3765 22.9403 34.6787 23.4918 34.8472C24.0432 35.0157 24.6278 35.0454 25.1935 34.9335C25.7592 34.8217 26.2885 34.5718 26.7343 34.2062C27.1802 33.8405 27.5288 33.3703 27.7491 32.8374C27.9694 32.3045 28.0547 31.7254 27.9973 31.1517C27.9399 30.5779 27.7417 30.0272 27.4201 29.5485C27.0986 29.0698 26.6638 28.678 26.1544 28.4078C25.6449 28.1377 25.0766 27.9976 24.5 28H3.5M31.0275 13.5275C31.5365 13.0198 32.1627 12.6454 32.8509 12.4373C33.539 12.2292 34.2678 12.1939 34.9728 12.3345C35.6779 12.4751 36.3374 12.7873 36.8931 13.2435C37.4487 13.6996 37.8834 14.2856 38.1587 14.9497C38.434 15.6139 38.5414 16.3356 38.4714 17.0511C38.4014 17.7666 38.1561 18.4538 37.7573 19.0519C37.3586 19.6501 36.8185 20.1408 36.185 20.4805C35.5514 20.8203 34.8439 20.9987 34.125 21H3.5" stroke="#EDF2F4" stroke-width="3" stroke-linecap="round" stroke-linejoin="round"/>
</g>
</svg>
