<svg width="33" height="32" viewBox="0 0 33 32" fill="none" xmlns="http://www.w3.org/2000/svg">
<mask id="mask0_49_1121" style="mask-type:alpha" maskUnits="userSpaceOnUse" x="0" y="0" width="33" height="32">
<rect x="0.413086" width="32" height="32" fill="#D9D9D9"/>
</mask>
<g mask="url(#mask0_49_1121)">
<path d="M17.518 27.8333C15.3347 27.8333 13.4791 27.0667 11.9513 25.5333C10.4236 24 9.65967 22.1356 9.65967 19.9401V14.0417C9.65967 13.8417 9.76245 13.7042 9.968 13.6292C10.1736 13.5542 10.3486 13.5889 10.493 13.7333L14.7065 17.9456C14.8975 18.1485 14.993 18.3795 14.993 18.6386C14.993 18.8977 14.9027 19.1199 14.722 19.3053C14.5249 19.4906 14.2934 19.5833 14.0274 19.5833C13.7615 19.5833 13.5334 19.4889 13.343 19.3L11.5763 17.5333V19.9333C11.5763 21.5862 12.1541 22.9967 13.3097 24.1647C14.4652 25.3327 15.868 25.9167 17.518 25.9167C19.168 25.9167 20.5708 25.3332 21.7263 24.1664C22.8819 22.9995 23.4597 21.5887 23.4597 19.9338V15.5011C22.693 15.267 22.0624 14.8318 21.568 14.1954C21.0736 13.5591 20.8263 12.8396 20.8263 12.0371C20.8263 11.2346 21.0736 10.5139 21.568 9.875C22.0624 9.23611 22.693 8.8 23.4597 8.56667V3.78333C23.4597 3.51111 23.5505 3.28194 23.7322 3.09583C23.9139 2.90972 24.1416 2.81667 24.4155 2.81667C24.6894 2.81667 24.918 2.90972 25.1013 3.09583C25.2847 3.28194 25.3763 3.51111 25.3763 3.78333V8.56667C26.1308 8.79718 26.7555 9.23133 27.2505 9.86913C27.7455 10.5069 27.993 11.2271 27.993 12.0296C27.993 12.8359 27.7476 13.5592 27.2567 14.1994C26.7659 14.8396 26.1391 15.2676 25.3763 15.4833V19.9333C25.3763 22.1213 24.6124 23.9849 23.0847 25.5243C21.5569 27.0637 19.7013 27.8333 17.518 27.8333ZM24.4038 13.7C24.8744 13.7 25.2708 13.5408 25.593 13.2225C25.9152 12.9042 26.0763 12.5097 26.0763 12.0392C26.0763 11.5686 25.9172 11.1722 25.5988 10.85C25.2805 10.5278 24.8861 10.3667 24.4155 10.3667C23.9449 10.3667 23.5486 10.5258 23.2263 10.8442C22.9041 11.1625 22.743 11.5569 22.743 12.0275C22.743 12.4981 22.9022 12.8944 23.2205 13.2167C23.5388 13.5389 23.9333 13.7 24.4038 13.7Z" fill="#EDF2F4"/>
</g>
</svg>
