<svg width="33" height="32" viewBox="0 0 33 32" fill="none" xmlns="http://www.w3.org/2000/svg">
<mask id="mask0_49_1124" style="mask-type:alpha" maskUnits="userSpaceOnUse" x="0" y="0" width="33" height="32">
<rect x="0.619629" width="32" height="32" fill="#D9D9D9"/>
</mask>
<g mask="url(#mask0_49_1124)">
<path d="M14.6194 19.3667L12.3194 29.8333C12.275 30.0778 12.1527 30.2778 11.9527 30.4333C11.7527 30.5889 11.5305 30.6667 11.2861 30.6667C10.9527 30.6667 10.6805 30.5389 10.4694 30.2833C10.2583 30.0278 10.1861 29.7444 10.2527 29.4333L14.0527 10C14.1638 9.46667 14.4194 9.05556 14.8194 8.76667C15.2194 8.47778 15.6416 8.33333 16.0861 8.33333C16.5305 8.33333 16.9472 8.43333 17.3361 8.63333C17.725 8.83333 18.0416 9.12222 18.2861 9.5L19.5861 11.6333C20.0083 12.3444 20.5916 12.9778 21.3361 13.5333C22.0805 14.0889 22.9527 14.5222 23.9527 14.8333V13C23.9527 12.8222 24.0194 12.6667 24.1527 12.5333C24.2861 12.4 24.4416 12.3333 24.6194 12.3333C24.7972 12.3333 24.9527 12.4 25.0861 12.5333C25.2194 12.6667 25.2861 12.8222 25.2861 13V30C25.2861 30.1778 25.2194 30.3333 25.0861 30.4667C24.9527 30.6 24.7972 30.6667 24.6194 30.6667C24.4416 30.6667 24.2861 30.6 24.1527 30.4667C24.0194 30.3333 23.9527 30.1778 23.9527 30V16.8667C22.8194 16.6222 21.7527 16.1889 20.7527 15.5667C19.7527 14.9444 18.8638 14.1778 18.0861 13.2667L17.1194 18.1L19.6527 20.5C19.7638 20.6111 19.8416 20.7278 19.8861 20.85C19.9305 20.9722 19.9527 21.1 19.9527 21.2333V29.6667C19.9527 29.9556 19.8583 30.1944 19.6694 30.3833C19.4805 30.5722 19.2416 30.6667 18.9527 30.6667C18.6638 30.6667 18.425 30.5722 18.2361 30.3833C18.0472 30.1944 17.9527 29.9556 17.9527 29.6667V22.5333L14.6194 19.3667ZM9.6194 17.0667L8.08606 16.7667C7.8194 16.7222 7.61384 16.5833 7.4694 16.35C7.32495 16.1167 7.27495 15.8667 7.3194 15.6L8.3194 10.3667C8.43051 9.72222 8.77495 9.22778 9.35273 8.88333C9.93051 8.53889 10.5638 8.43333 11.2527 8.56667C11.5194 8.61111 11.7305 8.75556 11.8861 9C12.0416 9.24444 12.0972 9.5 12.0527 9.76667L10.7861 16.2667C10.7416 16.5333 10.6027 16.7444 10.3694 16.9C10.1361 17.0556 9.88606 17.1111 9.6194 17.0667ZM18.2861 6.86667C17.6194 6.86667 17.0472 6.62778 16.5694 6.15C16.0916 5.67222 15.8527 5.1 15.8527 4.43333C15.8527 3.76667 16.0916 3.19444 16.5694 2.71667C17.0472 2.23889 17.6194 2 18.2861 2C18.9527 2 19.525 2.23889 20.0027 2.71667C20.4805 3.19444 20.7194 3.76667 20.7194 4.43333C20.7194 5.1 20.4805 5.67222 20.0027 6.15C19.525 6.62778 18.9527 6.86667 18.2861 6.86667Z" fill="#EDF2F4"/>
</g>
</svg>
