<svg width="1326" height="223" viewBox="0 0 1326 223" fill="none" xmlns="http://www.w3.org/2000/svg">
<rect width="1326" height="223" fill="#2B2D42"/>
<g filter="url(#filter0_if_252_5112)">
<ellipse cx="123.967" cy="109.141" rx="30.0333" ry="30.1406" fill="url(#paint0_radial_252_5112)"/>
</g>
<g filter="url(#filter1_i_252_5112)">
<ellipse cx="123.967" cy="109.141" rx="30.0333" ry="30.1406" fill="url(#paint1_radial_252_5112)"/>
</g>
<g filter="url(#filter2_bi_252_5112)">
<mask id="path-3-inside-1_252_5112" fill="white">
<path fill-rule="evenodd" clip-rule="evenodd" d="M124.675 157.764H58.0917H57.1V157.743C44.8068 157.221 35 147.055 35 134.589C35 121.791 45.3385 111.415 58.0917 111.415C58.7137 111.415 59.3301 111.44 59.9397 111.488C64.2018 99.0375 75.9722 90.0895 89.825 90.0895C106.942 90.0895 120.88 103.752 121.402 120.803C122.464 120.613 123.558 120.514 124.675 120.514C134.924 120.514 143.233 128.853 143.233 139.139C143.233 149.187 135.305 157.377 125.383 157.75V157.764H124.675Z"/>
</mask>
<path fill-rule="evenodd" clip-rule="evenodd" d="M124.675 157.764H58.0917H57.1V157.743C44.8068 157.221 35 147.055 35 134.589C35 121.791 45.3385 111.415 58.0917 111.415C58.7137 111.415 59.3301 111.44 59.9397 111.488C64.2018 99.0375 75.9722 90.0895 89.825 90.0895C106.942 90.0895 120.88 103.752 121.402 120.803C122.464 120.613 123.558 120.514 124.675 120.514C134.924 120.514 143.233 128.853 143.233 139.139C143.233 149.187 135.305 157.377 125.383 157.75V157.764H124.675Z" fill="url(#paint2_linear_252_5112)"/>
<path d="M57.1 157.764H55.1V159.764H57.1V157.764ZM57.1 157.743H59.1V155.826L57.1847 155.744L57.1 157.743ZM59.9397 111.488L59.7813 113.482L61.3291 113.605L61.8319 112.136L59.9397 111.488ZM121.402 120.803L119.402 120.864L119.473 123.179L121.753 122.772L121.402 120.803ZM125.383 157.75L125.308 155.752L123.383 155.824V157.75H125.383ZM125.383 157.764V159.764H127.383V157.764H125.383ZM124.675 155.764H58.0917V159.764H124.675V155.764ZM58.0917 155.764H57.1V159.764H58.0917V155.764ZM59.1 157.764V157.743H55.1V157.764H59.1ZM57.1847 155.744C45.964 155.269 37 145.985 37 134.589H33C33 148.125 43.6497 159.174 57.0153 159.741L57.1847 155.744ZM37 134.589C37 122.889 46.4498 113.415 58.0917 113.415V109.415C44.2272 109.415 33 120.693 33 134.589H37ZM58.0917 113.415C58.6608 113.415 59.2243 113.438 59.7813 113.482L60.0982 109.495C59.4359 109.442 58.7667 109.415 58.0917 109.415V113.415ZM61.8319 112.136C65.8269 100.466 76.8568 92.0895 89.825 92.0895V88.0895C75.0875 88.0895 62.5768 97.6094 58.0475 110.841L61.8319 112.136ZM89.825 92.0895C105.852 92.0895 118.914 104.883 119.402 120.864L123.401 120.742C122.846 102.62 108.033 88.0895 89.825 88.0895V92.0895ZM121.753 122.772C122.7 122.603 123.676 122.514 124.675 122.514V118.514C123.44 118.514 122.228 118.624 121.05 118.834L121.753 122.772ZM124.675 122.514C133.813 122.514 141.233 129.951 141.233 139.139H145.233C145.233 127.755 136.036 118.514 124.675 118.514V122.514ZM141.233 139.139C141.233 148.114 134.153 155.419 125.308 155.752L125.459 159.749C136.457 159.335 145.233 150.26 145.233 139.139H141.233ZM123.383 157.75V157.764H127.383V157.75H123.383ZM125.383 155.764H124.675V159.764H125.383V155.764Z" fill="white" fill-opacity="0.15" style="mix-blend-mode:overlay" mask="url(#path-3-inside-1_252_5112)"/>
</g>
<rect x="56.25" y="139.281" width="4.25" height="28.7188" rx="2.125" fill="url(#paint3_linear_252_5112)"/>
<rect x="89.6833" y="137.291" width="4.25" height="28.7188" rx="2.125" fill="url(#paint4_linear_252_5112)"/>
<rect x="108.667" y="120.23" width="4.25" height="28.7189" rx="2.125" fill="url(#paint5_linear_252_5112)"/>
<rect x="75.2333" y="122.789" width="4.25" height="28.7188" rx="2.125" fill="url(#paint6_linear_252_5112)"/>
<g filter="url(#filter3_if_252_5112)">
<circle cx="277.714" cy="109.286" r="30.2857" fill="url(#paint7_radial_252_5112)"/>
</g>
<g filter="url(#filter4_i_252_5112)">
<circle cx="277.714" cy="109.286" r="30.2857" fill="url(#paint8_radial_252_5112)"/>
</g>
<g filter="url(#filter5_bi_252_5112)">
<mask id="path-11-inside-2_252_5112" fill="white">
<path fill-rule="evenodd" clip-rule="evenodd" d="M278.429 158.143H211.286H210.286V158.122C197.889 157.598 188 147.382 188 134.857C188 121.997 198.425 111.571 211.286 111.571C211.913 111.571 212.535 111.596 213.149 111.645C217.447 99.134 229.316 90.1429 243.286 90.1429C260.547 90.1429 274.602 103.871 275.128 121.005C276.199 120.814 277.302 120.714 278.429 120.714C288.764 120.714 297.143 129.093 297.143 139.429C297.143 149.525 289.147 157.754 279.143 158.13V158.143H278.429Z"/>
</mask>
<path fill-rule="evenodd" clip-rule="evenodd" d="M278.429 158.143H211.286H210.286V158.122C197.889 157.598 188 147.382 188 134.857C188 121.997 198.425 111.571 211.286 111.571C211.913 111.571 212.535 111.596 213.149 111.645C217.447 99.134 229.316 90.1429 243.286 90.1429C260.547 90.1429 274.602 103.871 275.128 121.005C276.199 120.814 277.302 120.714 278.429 120.714C288.764 120.714 297.143 129.093 297.143 139.429C297.143 149.525 289.147 157.754 279.143 158.13V158.143H278.429Z" fill="url(#paint9_linear_252_5112)"/>
<path d="M210.286 158.143H208.286V160.143H210.286V158.143ZM210.286 158.122H212.286V156.205L210.37 156.124L210.286 158.122ZM213.149 111.645L212.991 113.639L214.537 113.761L215.041 112.295L213.149 111.645ZM275.128 121.005L273.129 121.066L273.2 123.379L275.478 122.974L275.128 121.005ZM279.143 158.13L279.068 156.131L277.143 156.203V158.13H279.143ZM279.143 158.143V160.143H281.143V158.143H279.143ZM278.429 156.143H211.286V160.143H278.429V156.143ZM211.286 156.143H210.286V160.143H211.286V156.143ZM212.286 158.143V158.122H208.286V158.143H212.286ZM210.37 156.124C199.04 155.645 190 146.306 190 134.857H186C186 148.459 196.739 159.551 210.201 160.12L210.37 156.124ZM190 134.857C190 123.101 199.53 113.571 211.286 113.571V109.571C197.321 109.571 186 120.892 186 134.857H190ZM211.286 113.571C211.86 113.571 212.429 113.594 212.991 113.639L213.307 109.651C212.64 109.598 211.966 109.571 211.286 109.571V113.571ZM215.041 112.295C219.07 100.567 230.197 92.1429 243.286 92.1429V88.1429C228.436 88.1429 215.825 97.7013 211.258 110.995L215.041 112.295ZM243.286 92.1429C259.463 92.1429 272.636 105.009 273.129 121.066L277.127 120.943C276.568 102.733 261.631 88.1429 243.286 88.1429V92.1429ZM275.478 122.974C276.434 122.803 277.42 122.714 278.429 122.714V118.714C277.184 118.714 275.964 118.824 274.777 119.035L275.478 122.974ZM278.429 122.714C287.66 122.714 295.143 130.198 295.143 139.429H299.143C299.143 127.988 289.869 118.714 278.429 118.714V122.714ZM295.143 139.429C295.143 148.446 288.002 155.796 279.068 156.131L279.218 160.128C290.293 159.712 299.143 150.604 299.143 139.429H295.143ZM277.143 158.13V158.143H281.143V158.13H277.143ZM279.143 156.143H278.429V160.143H279.143V156.143Z" fill="white" fill-opacity="0.15" style="mix-blend-mode:overlay" mask="url(#path-11-inside-2_252_5112)"/>
</g>
<g filter="url(#filter6_if_252_5112)">
<circle cx="438" cy="125" r="40" fill="url(#paint10_radial_252_5112)"/>
</g>
<g filter="url(#filter7_i_252_5112)">
<circle cx="438" cy="125" r="40" fill="url(#paint11_radial_252_5112)"/>
</g>
<g filter="url(#filter8_bi_252_5112)">
<mask id="path-15-inside-3_252_5112" fill="white">
<path fill-rule="evenodd" clip-rule="evenodd" d="M608.796 140.78H539.895H538.869V140.758C526.148 140.221 516 129.738 516 116.885C516 103.688 526.698 92.9895 539.895 92.9895C540.539 92.9895 541.177 93.015 541.808 93.0649C546.218 80.2265 558.398 71 572.733 71C590.446 71 604.869 85.0874 605.408 102.67C606.508 102.474 607.64 102.372 608.796 102.372C619.402 102.372 628 110.97 628 121.576C628 131.937 619.795 140.381 609.529 140.766V140.78H608.796Z"/>
</mask>
<path fill-rule="evenodd" clip-rule="evenodd" d="M608.796 140.78H539.895H538.869V140.758C526.148 140.221 516 129.738 516 116.885C516 103.688 526.698 92.9895 539.895 92.9895C540.539 92.9895 541.177 93.015 541.808 93.0649C546.218 80.2265 558.398 71 572.733 71C590.446 71 604.869 85.0874 605.408 102.67C606.508 102.474 607.64 102.372 608.796 102.372C619.402 102.372 628 110.97 628 121.576C628 131.937 619.795 140.381 609.529 140.766V140.78H608.796Z" fill="url(#paint12_linear_252_5112)"/>
<path d="M538.869 140.78H536.869V142.78H538.869V140.78ZM538.869 140.758H540.869V138.841L538.954 138.76L538.869 140.758ZM541.808 93.0649L541.65 95.0587L543.195 95.1811L543.699 93.7147L541.808 93.0649ZM605.408 102.67L603.409 102.731L603.48 105.044L605.759 104.639L605.408 102.67ZM609.529 140.766L609.454 138.768L607.529 138.84V140.766H609.529ZM609.529 140.78V142.78H611.529V140.78H609.529ZM608.796 138.78H539.895V142.78H608.796V138.78ZM539.895 138.78H538.869V142.78H539.895V138.78ZM540.869 140.78V140.758H536.869V140.78H540.869ZM538.954 138.76C527.299 138.268 518 128.662 518 116.885H514C514 130.814 524.997 142.174 538.785 142.757L538.954 138.76ZM518 116.885C518 104.792 527.803 94.9895 539.895 94.9895V90.9895C525.594 90.9895 514 102.583 514 116.885H518ZM539.895 94.9895C540.486 94.9895 541.071 95.0129 541.65 95.0587L541.966 91.0712C541.282 91.0171 540.592 90.9895 539.895 90.9895V94.9895ZM543.699 93.7147C547.841 81.6593 559.278 73 572.733 73V69C557.518 69 544.596 78.7938 539.916 92.4151L543.699 93.7147ZM572.733 73C589.362 73 602.903 86.2256 603.409 102.731L607.407 102.608C606.835 83.9492 591.53 69 572.733 69V73ZM605.759 104.639C606.743 104.463 607.758 104.372 608.796 104.372V100.372C607.522 100.372 606.273 100.484 605.058 100.7L605.759 104.639ZM608.796 104.372C618.297 104.372 626 112.074 626 121.576H630C630 109.865 620.507 100.372 608.796 100.372V104.372ZM626 121.576C626 130.857 618.65 138.423 609.454 138.768L609.604 142.765C620.941 142.34 630 133.016 630 121.576H626ZM607.529 140.766V140.78H611.529V140.766H607.529ZM609.529 138.78H608.796V142.78H609.529V138.78Z" fill="white" fill-opacity="0.15" style="mix-blend-mode:overlay" mask="url(#path-15-inside-3_252_5112)"/>
</g>
<rect x="537.99" y="121.723" width="4.39791" height="29.6126" rx="2.19895" fill="url(#paint13_linear_252_5112)"/>
<rect x="558.513" y="136.382" width="4.39791" height="29.6126" rx="2.19895" fill="url(#paint14_linear_252_5112)"/>
<rect x="569.948" y="116.738" width="4.39791" height="29.6126" rx="2.19895" fill="url(#paint15_linear_252_5112)"/>
<rect x="584.021" y="131.398" width="4.3979" height="29.6126" rx="2.19895" fill="url(#paint16_linear_252_5112)"/>
<rect x="595.162" y="121.723" width="4.39791" height="29.6126" rx="2.19896" fill="url(#paint17_linear_252_5112)"/>
<rect x="548.251" y="116.445" width="4.39791" height="29.6126" rx="2.19895" fill="url(#paint18_linear_252_5112)"/>
<rect x="606.304" y="124.068" width="4.3979" height="29.6126" rx="2.19895" fill="url(#paint19_linear_252_5112)"/>
<defs>
<filter id="filter0_if_252_5112" x="77.9333" y="63" width="92.0667" height="92.2811" filterUnits="userSpaceOnUse" color-interpolation-filters="sRGB">
<feFlood flood-opacity="0" result="BackgroundImageFix"/>
<feBlend mode="normal" in="SourceGraphic" in2="BackgroundImageFix" result="shape"/>
<feColorMatrix in="SourceAlpha" type="matrix" values="0 0 0 0 0 0 0 0 0 0 0 0 0 0 0 0 0 0 127 0" result="hardAlpha"/>
<feOffset dy="4"/>
<feGaussianBlur stdDeviation="8"/>
<feComposite in2="hardAlpha" operator="arithmetic" k2="-1" k3="1"/>
<feColorMatrix type="matrix" values="0 0 0 0 1 0 0 0 0 1 0 0 0 0 1 0 0 0 0.7 0"/>
<feBlend mode="overlay" in2="shape" result="effect1_innerShadow_252_5112"/>
<feGaussianBlur stdDeviation="8" result="effect2_foregroundBlur_252_5112"/>
</filter>
<filter id="filter1_i_252_5112" x="93.9333" y="79" width="60.0667" height="64.2811" filterUnits="userSpaceOnUse" color-interpolation-filters="sRGB">
<feFlood flood-opacity="0" result="BackgroundImageFix"/>
<feBlend mode="normal" in="SourceGraphic" in2="BackgroundImageFix" result="shape"/>
<feColorMatrix in="SourceAlpha" type="matrix" values="0 0 0 0 0 0 0 0 0 0 0 0 0 0 0 0 0 0 127 0" result="hardAlpha"/>
<feOffset dy="4"/>
<feGaussianBlur stdDeviation="8"/>
<feComposite in2="hardAlpha" operator="arithmetic" k2="-1" k3="1"/>
<feColorMatrix type="matrix" values="0 0 0 0 1 0 0 0 0 1 0 0 0 0 1 0 0 0 0.7 0"/>
<feBlend mode="overlay" in2="shape" result="effect1_innerShadow_252_5112"/>
</filter>
<filter id="filter2_bi_252_5112" x="23" y="78.0895" width="132.233" height="91.6741" filterUnits="userSpaceOnUse" color-interpolation-filters="sRGB">
<feFlood flood-opacity="0" result="BackgroundImageFix"/>
<feGaussianBlur in="BackgroundImageFix" stdDeviation="6"/>
<feComposite in2="SourceAlpha" operator="in" result="effect1_backgroundBlur_252_5112"/>
<feBlend mode="normal" in="SourceGraphic" in2="effect1_backgroundBlur_252_5112" result="shape"/>
<feColorMatrix in="SourceAlpha" type="matrix" values="0 0 0 0 0 0 0 0 0 0 0 0 0 0 0 0 0 0 127 0" result="hardAlpha"/>
<feOffset dy="4"/>
<feGaussianBlur stdDeviation="8"/>
<feComposite in2="hardAlpha" operator="arithmetic" k2="-1" k3="1"/>
<feColorMatrix type="matrix" values="0 0 0 0 1 0 0 0 0 1 0 0 0 0 1 0 0 0 1 0"/>
<feBlend mode="normal" in2="shape" result="effect2_innerShadow_252_5112"/>
</filter>
<filter id="filter3_if_252_5112" x="231.429" y="63" width="92.5714" height="92.5714" filterUnits="userSpaceOnUse" color-interpolation-filters="sRGB">
<feFlood flood-opacity="0" result="BackgroundImageFix"/>
<feBlend mode="normal" in="SourceGraphic" in2="BackgroundImageFix" result="shape"/>
<feColorMatrix in="SourceAlpha" type="matrix" values="0 0 0 0 0 0 0 0 0 0 0 0 0 0 0 0 0 0 127 0" result="hardAlpha"/>
<feOffset dy="4"/>
<feGaussianBlur stdDeviation="8"/>
<feComposite in2="hardAlpha" operator="arithmetic" k2="-1" k3="1"/>
<feColorMatrix type="matrix" values="0 0 0 0 1 0 0 0 0 1 0 0 0 0 1 0 0 0 0.7 0"/>
<feBlend mode="overlay" in2="shape" result="effect1_innerShadow_252_5112"/>
<feGaussianBlur stdDeviation="8" result="effect2_foregroundBlur_252_5112"/>
</filter>
<filter id="filter4_i_252_5112" x="247.429" y="79" width="60.5714" height="64.5714" filterUnits="userSpaceOnUse" color-interpolation-filters="sRGB">
<feFlood flood-opacity="0" result="BackgroundImageFix"/>
<feBlend mode="normal" in="SourceGraphic" in2="BackgroundImageFix" result="shape"/>
<feColorMatrix in="SourceAlpha" type="matrix" values="0 0 0 0 0 0 0 0 0 0 0 0 0 0 0 0 0 0 127 0" result="hardAlpha"/>
<feOffset dy="4"/>
<feGaussianBlur stdDeviation="8"/>
<feComposite in2="hardAlpha" operator="arithmetic" k2="-1" k3="1"/>
<feColorMatrix type="matrix" values="0 0 0 0 1 0 0 0 0 1 0 0 0 0 1 0 0 0 0.7 0"/>
<feBlend mode="overlay" in2="shape" result="effect1_innerShadow_252_5112"/>
</filter>
<filter id="filter5_bi_252_5112" x="176" y="78.1429" width="133.143" height="92" filterUnits="userSpaceOnUse" color-interpolation-filters="sRGB">
<feFlood flood-opacity="0" result="BackgroundImageFix"/>
<feGaussianBlur in="BackgroundImageFix" stdDeviation="6"/>
<feComposite in2="SourceAlpha" operator="in" result="effect1_backgroundBlur_252_5112"/>
<feBlend mode="normal" in="SourceGraphic" in2="effect1_backgroundBlur_252_5112" result="shape"/>
<feColorMatrix in="SourceAlpha" type="matrix" values="0 0 0 0 0 0 0 0 0 0 0 0 0 0 0 0 0 0 127 0" result="hardAlpha"/>
<feOffset dy="4"/>
<feGaussianBlur stdDeviation="8"/>
<feComposite in2="hardAlpha" operator="arithmetic" k2="-1" k3="1"/>
<feColorMatrix type="matrix" values="0 0 0 0 1 0 0 0 0 1 0 0 0 0 1 0 0 0 1 0"/>
<feBlend mode="normal" in2="shape" result="effect2_innerShadow_252_5112"/>
</filter>
<filter id="filter6_if_252_5112" x="382" y="69" width="112" height="112" filterUnits="userSpaceOnUse" color-interpolation-filters="sRGB">
<feFlood flood-opacity="0" result="BackgroundImageFix"/>
<feBlend mode="normal" in="SourceGraphic" in2="BackgroundImageFix" result="shape"/>
<feColorMatrix in="SourceAlpha" type="matrix" values="0 0 0 0 0 0 0 0 0 0 0 0 0 0 0 0 0 0 127 0" result="hardAlpha"/>
<feOffset dy="4"/>
<feGaussianBlur stdDeviation="8"/>
<feComposite in2="hardAlpha" operator="arithmetic" k2="-1" k3="1"/>
<feColorMatrix type="matrix" values="0 0 0 0 1 0 0 0 0 1 0 0 0 0 1 0 0 0 0.7 0"/>
<feBlend mode="overlay" in2="shape" result="effect1_innerShadow_252_5112"/>
<feGaussianBlur stdDeviation="8" result="effect2_foregroundBlur_252_5112"/>
</filter>
<filter id="filter7_i_252_5112" x="398" y="85" width="80" height="84" filterUnits="userSpaceOnUse" color-interpolation-filters="sRGB">
<feFlood flood-opacity="0" result="BackgroundImageFix"/>
<feBlend mode="normal" in="SourceGraphic" in2="BackgroundImageFix" result="shape"/>
<feColorMatrix in="SourceAlpha" type="matrix" values="0 0 0 0 0 0 0 0 0 0 0 0 0 0 0 0 0 0 127 0" result="hardAlpha"/>
<feOffset dy="4"/>
<feGaussianBlur stdDeviation="8"/>
<feComposite in2="hardAlpha" operator="arithmetic" k2="-1" k3="1"/>
<feColorMatrix type="matrix" values="0 0 0 0 1 0 0 0 0 1 0 0 0 0 1 0 0 0 0.7 0"/>
<feBlend mode="overlay" in2="shape" result="effect1_innerShadow_252_5112"/>
</filter>
<filter id="filter8_bi_252_5112" x="504" y="59" width="136" height="93.7801" filterUnits="userSpaceOnUse" color-interpolation-filters="sRGB">
<feFlood flood-opacity="0" result="BackgroundImageFix"/>
<feGaussianBlur in="BackgroundImageFix" stdDeviation="6"/>
<feComposite in2="SourceAlpha" operator="in" result="effect1_backgroundBlur_252_5112"/>
<feBlend mode="normal" in="SourceGraphic" in2="effect1_backgroundBlur_252_5112" result="shape"/>
<feColorMatrix in="SourceAlpha" type="matrix" values="0 0 0 0 0 0 0 0 0 0 0 0 0 0 0 0 0 0 127 0" result="hardAlpha"/>
<feOffset dy="4"/>
<feGaussianBlur stdDeviation="8"/>
<feComposite in2="hardAlpha" operator="arithmetic" k2="-1" k3="1"/>
<feColorMatrix type="matrix" values="0 0 0 0 1 0 0 0 0 1 0 0 0 0 1 0 0 0 1 0"/>
<feBlend mode="normal" in2="shape" result="effect2_innerShadow_252_5112"/>
</filter>
<radialGradient id="paint0_radial_252_5112" cx="0" cy="0" r="1" gradientUnits="userSpaceOnUse" gradientTransform="translate(110.422 139.281) rotate(-73.8376) scale(62.7617 62.5731)">
<stop stop-color="#FF7A00"/>
<stop offset="1" stop-color="#FFE600"/>
</radialGradient>
<radialGradient id="paint1_radial_252_5112" cx="0" cy="0" r="1" gradientUnits="userSpaceOnUse" gradientTransform="translate(110.422 139.281) rotate(-73.8376) scale(62.7617 62.5731)">
<stop stop-color="#FF7A00"/>
<stop offset="1" stop-color="#FFE600"/>
</radialGradient>
<linearGradient id="paint2_linear_252_5112" x1="46.475" y1="153.498" x2="123.787" y2="116.323" gradientUnits="userSpaceOnUse">
<stop stop-color="#57E1FF" stop-opacity="0.8"/>
<stop offset="1" stop-color="white"/>
</linearGradient>
<linearGradient id="paint3_linear_252_5112" x1="58.375" y1="139.281" x2="58.375" y2="168" gradientUnits="userSpaceOnUse">
<stop offset="0.195" stop-color="white" stop-opacity="0"/>
<stop offset="1" stop-color="white"/>
</linearGradient>
<linearGradient id="paint4_linear_252_5112" x1="91.8083" y1="137.291" x2="91.8083" y2="166.01" gradientUnits="userSpaceOnUse">
<stop offset="0.195" stop-color="white" stop-opacity="0"/>
<stop offset="1" stop-color="white"/>
</linearGradient>
<linearGradient id="paint5_linear_252_5112" x1="110.792" y1="120.23" x2="110.792" y2="148.949" gradientUnits="userSpaceOnUse">
<stop offset="0.195" stop-color="white" stop-opacity="0"/>
<stop offset="1" stop-color="white"/>
</linearGradient>
<linearGradient id="paint6_linear_252_5112" x1="77.3583" y1="122.789" x2="77.3583" y2="151.508" gradientUnits="userSpaceOnUse">
<stop offset="0.195" stop-color="white" stop-opacity="0"/>
<stop offset="1" stop-color="white"/>
</linearGradient>
<radialGradient id="paint7_radial_252_5112" cx="0" cy="0" r="1" gradientUnits="userSpaceOnUse" gradientTransform="translate(264.056 139.571) rotate(-73.7829) scale(63.0814)">
<stop stop-color="#FF7A00"/>
<stop offset="1" stop-color="#FFE600"/>
</radialGradient>
<radialGradient id="paint8_radial_252_5112" cx="0" cy="0" r="1" gradientUnits="userSpaceOnUse" gradientTransform="translate(264.056 139.571) rotate(-73.7829) scale(63.0814)">
<stop stop-color="#FF7A00"/>
<stop offset="1" stop-color="#FFE600"/>
</radialGradient>
<linearGradient id="paint9_linear_252_5112" x1="199.571" y1="153.857" x2="277.429" y2="116.286" gradientUnits="userSpaceOnUse">
<stop stop-color="#57E1FF" stop-opacity="0.8"/>
<stop offset="1" stop-color="white"/>
</linearGradient>
<radialGradient id="paint10_radial_252_5112" cx="0" cy="0" r="1" gradientUnits="userSpaceOnUse" gradientTransform="translate(419.961 165) rotate(-73.7829) scale(83.3151)">
<stop stop-color="#FF7A00"/>
<stop offset="1" stop-color="#FFE600"/>
</radialGradient>
<radialGradient id="paint11_radial_252_5112" cx="0" cy="0" r="1" gradientUnits="userSpaceOnUse" gradientTransform="translate(419.961 165) rotate(-73.7829) scale(83.3151)">
<stop stop-color="#FF7A00"/>
<stop offset="1" stop-color="#FFE600"/>
</radialGradient>
<linearGradient id="paint12_linear_252_5112" x1="527.874" y1="136.382" x2="607.77" y2="97.8272" gradientUnits="userSpaceOnUse">
<stop stop-color="#57E1FF" stop-opacity="0.8"/>
<stop offset="1" stop-color="white"/>
</linearGradient>
<linearGradient id="paint13_linear_252_5112" x1="540.188" y1="121.723" x2="540.188" y2="151.335" gradientUnits="userSpaceOnUse">
<stop offset="0.195" stop-color="white" stop-opacity="0"/>
<stop offset="1" stop-color="white"/>
</linearGradient>
<linearGradient id="paint14_linear_252_5112" x1="560.712" y1="136.382" x2="560.712" y2="165.995" gradientUnits="userSpaceOnUse">
<stop offset="0.195" stop-color="white" stop-opacity="0"/>
<stop offset="1" stop-color="white"/>
</linearGradient>
<linearGradient id="paint15_linear_252_5112" x1="572.147" y1="116.738" x2="572.147" y2="146.351" gradientUnits="userSpaceOnUse">
<stop offset="0.195" stop-color="white" stop-opacity="0"/>
<stop offset="1" stop-color="white"/>
</linearGradient>
<linearGradient id="paint16_linear_252_5112" x1="586.22" y1="131.398" x2="586.22" y2="161.01" gradientUnits="userSpaceOnUse">
<stop offset="0.195" stop-color="white" stop-opacity="0"/>
<stop offset="1" stop-color="white"/>
</linearGradient>
<linearGradient id="paint17_linear_252_5112" x1="597.361" y1="121.723" x2="597.361" y2="151.335" gradientUnits="userSpaceOnUse">
<stop offset="0.195" stop-color="white" stop-opacity="0"/>
<stop offset="1" stop-color="white"/>
</linearGradient>
<linearGradient id="paint18_linear_252_5112" x1="550.45" y1="116.445" x2="550.45" y2="146.058" gradientUnits="userSpaceOnUse">
<stop offset="0.195" stop-color="white" stop-opacity="0"/>
<stop offset="1" stop-color="white"/>
</linearGradient>
<linearGradient id="paint19_linear_252_5112" x1="608.503" y1="124.068" x2="608.503" y2="153.681" gradientUnits="userSpaceOnUse">
<stop offset="0.195" stop-color="white" stop-opacity="0"/>
<stop offset="1" stop-color="white"/>
</linearGradient>
</defs>
</svg>
