<svg width="136" height="107" viewBox="0 0 136 107" fill="none" xmlns="http://www.w3.org/2000/svg">
<g filter="url(#filter0_if_30_12)">
<ellipse cx="89.7142" cy="46.9792" rx="30.2857" ry="30.4792" fill="url(#paint0_radial_30_12)"/>
</g>
<g filter="url(#filter1_i_30_12)">
<ellipse cx="89.7142" cy="46.9792" rx="30.2857" ry="30.4792" fill="url(#paint1_radial_30_12)"/>
</g>
<g filter="url(#filter2_bi_30_12)">
<mask id="path-3-inside-1_30_12" fill="white">
<path fill-rule="evenodd" clip-rule="evenodd" d="M90.4286 96.1486H23.2857H22.2857V96.1273C9.88925 95.6002 0 85.3194 0 72.7141C0 59.7715 10.4254 49.2795 23.2857 49.2795C23.913 49.2795 24.5345 49.3045 25.1493 49.3535C29.4472 36.7626 41.3165 27.7141 55.2857 27.7141C72.5469 27.7141 86.6017 41.5298 87.1276 58.7729C88.1991 58.581 89.3022 58.4808 90.4286 58.4808C100.764 58.4808 109.143 66.913 109.143 77.3147C109.143 87.4756 101.147 95.7572 91.1429 96.1351V96.1486H90.4286Z"/>
</mask>
<path fill-rule="evenodd" clip-rule="evenodd" d="M90.4286 96.1486H23.2857H22.2857V96.1273C9.88925 95.6002 0 85.3194 0 72.7141C0 59.7715 10.4254 49.2795 23.2857 49.2795C23.913 49.2795 24.5345 49.3045 25.1493 49.3535C29.4472 36.7626 41.3165 27.7141 55.2857 27.7141C72.5469 27.7141 86.6017 41.5298 87.1276 58.7729C88.1991 58.581 89.3022 58.4808 90.4286 58.4808C100.764 58.4808 109.143 66.913 109.143 77.3147C109.143 87.4756 101.147 95.7572 91.1429 96.1351V96.1486H90.4286Z" fill="url(#paint2_linear_30_12)"/>
<path d="M22.2857 96.1486H20.2857V98.1486H22.2857V96.1486ZM22.2857 96.1273H24.2857V94.2106L22.3707 94.1291L22.2857 96.1273ZM25.1493 49.3535L24.9904 51.3472L26.5399 51.4707L27.0421 49.9996L25.1493 49.3535ZM87.1276 58.7729L85.1285 58.8338L85.1992 61.1501L87.4802 60.7416L87.1276 58.7729ZM91.1429 96.1351L91.0674 94.1365L89.1429 94.2092V96.1351H91.1429ZM91.1429 96.1486V98.1486H93.1429V96.1486H91.1429ZM90.4286 94.1486H23.2857V98.1486H90.4286V94.1486ZM23.2857 94.1486H22.2857V98.1486H23.2857V94.1486ZM24.2857 96.1486V96.1273H20.2857V96.1486H24.2857ZM22.3707 94.1291C11.0514 93.6478 2 84.2546 2 72.7141H-2C-2 86.3842 8.72705 97.5526 22.2008 98.1255L22.3707 94.1291ZM2 72.7141C2 60.8641 11.5419 51.2795 23.2857 51.2795V47.2795C9.30881 47.2795 -2 58.679 -2 72.7141H2ZM23.2857 51.2795C23.8599 51.2795 24.4284 51.3024 24.9904 51.3472L25.3082 47.3598C24.6406 47.3066 23.9661 47.2795 23.2857 47.2795V51.2795ZM27.0421 49.9996C31.0743 38.1871 42.2047 29.7141 55.2857 29.7141V25.7141C40.4283 25.7141 27.8202 35.3382 23.2566 48.7074L27.0421 49.9996ZM55.2857 29.7141C71.4513 29.7141 84.6351 42.6563 85.1285 58.8338L89.1267 58.7119C88.5683 40.4033 73.6425 25.7141 55.2857 25.7141V29.7141ZM87.4802 60.7416C88.4359 60.5704 89.421 60.4808 90.4286 60.4808V56.4808C89.1835 56.4808 87.9624 56.5915 86.775 56.8042L87.4802 60.7416ZM90.4286 60.4808C99.6476 60.4808 107.143 68.0056 107.143 77.3147H111.143C111.143 65.8205 101.881 56.4808 90.4286 56.4808V60.4808ZM107.143 77.3147C107.143 86.4077 99.9903 93.7995 91.0674 94.1365L91.2183 98.1337C102.305 97.715 111.143 88.5436 111.143 77.3147H107.143ZM89.1429 96.1351V96.1486H93.1429V96.1351H89.1429ZM91.1429 94.1486H90.4286V98.1486H91.1429V94.1486Z" fill="white" fill-opacity="0.15" style="mix-blend-mode:overlay" mask="url(#path-3-inside-1_30_12)"/>
</g>
<rect x="21.4285" y="77.4585" width="4.28571" height="29.0415" rx="2.14286" fill="url(#paint3_linear_30_12)"/>
<rect x="55.1428" y="75.4457" width="4.28571" height="29.0415" rx="2.14286" fill="url(#paint4_linear_30_12)"/>
<rect x="74.2856" y="58.1933" width="4.28571" height="29.0415" rx="2.14286" fill="url(#paint5_linear_30_12)"/>
<rect x="40.5715" y="60.7812" width="4.28571" height="29.0415" rx="2.14286" fill="url(#paint6_linear_30_12)"/>
<defs>
<filter id="filter0_if_30_12" x="43.4285" y="0.5" width="92.5715" height="92.9585" filterUnits="userSpaceOnUse" color-interpolation-filters="sRGB">
<feFlood flood-opacity="0" result="BackgroundImageFix"/>
<feBlend mode="normal" in="SourceGraphic" in2="BackgroundImageFix" result="shape"/>
<feColorMatrix in="SourceAlpha" type="matrix" values="0 0 0 0 0 0 0 0 0 0 0 0 0 0 0 0 0 0 127 0" result="hardAlpha"/>
<feOffset dy="4"/>
<feGaussianBlur stdDeviation="8"/>
<feComposite in2="hardAlpha" operator="arithmetic" k2="-1" k3="1"/>
<feColorMatrix type="matrix" values="0 0 0 0 1 0 0 0 0 1 0 0 0 0 1 0 0 0 0.7 0"/>
<feBlend mode="overlay" in2="shape" result="effect1_innerShadow_30_12"/>
<feGaussianBlur stdDeviation="8" result="effect2_foregroundBlur_30_12"/>
</filter>
<filter id="filter1_i_30_12" x="59.4285" y="16.5" width="60.5715" height="64.9585" filterUnits="userSpaceOnUse" color-interpolation-filters="sRGB">
<feFlood flood-opacity="0" result="BackgroundImageFix"/>
<feBlend mode="normal" in="SourceGraphic" in2="BackgroundImageFix" result="shape"/>
<feColorMatrix in="SourceAlpha" type="matrix" values="0 0 0 0 0 0 0 0 0 0 0 0 0 0 0 0 0 0 127 0" result="hardAlpha"/>
<feOffset dy="4"/>
<feGaussianBlur stdDeviation="8"/>
<feComposite in2="hardAlpha" operator="arithmetic" k2="-1" k3="1"/>
<feColorMatrix type="matrix" values="0 0 0 0 1 0 0 0 0 1 0 0 0 0 1 0 0 0 0.7 0"/>
<feBlend mode="overlay" in2="shape" result="effect1_innerShadow_30_12"/>
</filter>
<filter id="filter2_bi_30_12" x="-12" y="15.7141" width="133.143" height="92.4345" filterUnits="userSpaceOnUse" color-interpolation-filters="sRGB">
<feFlood flood-opacity="0" result="BackgroundImageFix"/>
<feGaussianBlur in="BackgroundImageFix" stdDeviation="6"/>
<feComposite in2="SourceAlpha" operator="in" result="effect1_backgroundBlur_30_12"/>
<feBlend mode="normal" in="SourceGraphic" in2="effect1_backgroundBlur_30_12" result="shape"/>
<feColorMatrix in="SourceAlpha" type="matrix" values="0 0 0 0 0 0 0 0 0 0 0 0 0 0 0 0 0 0 127 0" result="hardAlpha"/>
<feOffset dy="4"/>
<feGaussianBlur stdDeviation="8"/>
<feComposite in2="hardAlpha" operator="arithmetic" k2="-1" k3="1"/>
<feColorMatrix type="matrix" values="0 0 0 0 1 0 0 0 0 1 0 0 0 0 1 0 0 0 1 0"/>
<feBlend mode="normal" in2="shape" result="effect2_innerShadow_30_12"/>
</filter>
<radialGradient id="paint0_radial_30_12" cx="0" cy="0" r="1" gradientUnits="userSpaceOnUse" gradientTransform="translate(76.0559 77.4585) rotate(-73.8805) scale(63.4531 63.1126)">
<stop stop-color="#FF7A00"/>
<stop offset="1" stop-color="#FFE600"/>
</radialGradient>
<radialGradient id="paint1_radial_30_12" cx="0" cy="0" r="1" gradientUnits="userSpaceOnUse" gradientTransform="translate(76.0559 77.4585) rotate(-73.8805) scale(63.4531 63.1126)">
<stop stop-color="#FF7A00"/>
<stop offset="1" stop-color="#FFE600"/>
</radialGradient>
<linearGradient id="paint2_linear_30_12" x1="11.5714" y1="91.8355" x2="89.6152" y2="54.4131" gradientUnits="userSpaceOnUse">
<stop stop-color="#57E1FF" stop-opacity="0.8"/>
<stop offset="1" stop-color="white"/>
</linearGradient>
<linearGradient id="paint3_linear_30_12" x1="23.5713" y1="77.4585" x2="23.5713" y2="106.5" gradientUnits="userSpaceOnUse">
<stop offset="0.195" stop-color="white" stop-opacity="0"/>
<stop offset="1" stop-color="white"/>
</linearGradient>
<linearGradient id="paint4_linear_30_12" x1="57.2857" y1="75.4457" x2="57.2857" y2="104.487" gradientUnits="userSpaceOnUse">
<stop offset="0.195" stop-color="white" stop-opacity="0"/>
<stop offset="1" stop-color="white"/>
</linearGradient>
<linearGradient id="paint5_linear_30_12" x1="76.4285" y1="58.1933" x2="76.4285" y2="87.2348" gradientUnits="userSpaceOnUse">
<stop offset="0.195" stop-color="white" stop-opacity="0"/>
<stop offset="1" stop-color="white"/>
</linearGradient>
<linearGradient id="paint6_linear_30_12" x1="42.7144" y1="60.7812" x2="42.7144" y2="89.8227" gradientUnits="userSpaceOnUse">
<stop offset="0.195" stop-color="white" stop-opacity="0"/>
<stop offset="1" stop-color="white"/>
</linearGradient>
</defs>
</svg>
