<svg width="33" height="32" viewBox="0 0 33 32" fill="none" xmlns="http://www.w3.org/2000/svg">
<mask id="mask0_49_1117" style="mask-type:alpha" maskUnits="userSpaceOnUse" x="0" y="0" width="33" height="32">
<rect x="0.206543" width="32" height="32" fill="#D9D9D9"/>
</mask>
<g mask="url(#mask0_49_1117)">
<path d="M2.9231 28.3333V23.8833C2.9231 23.6722 2.95365 23.4694 3.01476 23.275C3.07587 23.0805 3.1731 22.9 3.30643 22.7333L15.0231 6.86666L13.3731 4.66666C13.3287 4.6111 13.3842 4.45833 13.5398 4.20833C13.6953 3.95833 13.8398 3.72499 13.9731 3.50833C14.1064 3.29166 14.1703 3.1361 14.1648 3.04166C14.1592 2.94721 13.9731 3.03333 13.6064 3.29999C13.8064 3.13333 14.037 3.07777 14.2981 3.13333C14.5592 3.18888 14.7731 3.31666 14.9398 3.51666L16.2064 5.26666L17.5064 3.48333C17.6731 3.28333 17.8842 3.1611 18.1398 3.11666C18.3953 3.07221 18.6342 3.13333 18.8564 3.29999C19.0564 3.46666 19.1787 3.68055 19.2231 3.94166C19.2675 4.20277 19.2064 4.43333 19.0398 4.63333L17.4231 6.86666L29.1231 22.7333C29.2453 22.9 29.3398 23.0805 29.4064 23.275C29.4731 23.4694 29.5064 23.6722 29.5064 23.8833V28.3333C29.5064 28.6111 29.4148 28.8389 29.2314 29.0167C29.0481 29.1944 28.8175 29.2833 28.5398 29.2833H3.8731C3.59532 29.2833 3.36754 29.1944 3.18976 29.0167C3.01198 28.8389 2.9231 28.6111 2.9231 28.3333ZM10.9231 27.3667H21.5064L16.2064 19.9667L10.9231 27.3667Z" fill="#EDF2F4"/>
</g>
</svg>
