<svg width="32" height="32" viewBox="0 0 32 32" fill="none" xmlns="http://www.w3.org/2000/svg">
<mask id="mask0_49_1114" style="mask-type:alpha" maskUnits="userSpaceOnUse" x="0" y="0" width="32" height="32">
<rect width="32" height="32" fill="#D9D9D9"/>
</mask>
<g mask="url(#mask0_49_1114)">
<path d="M17.8499 29.5667V22.6333L14.2166 19.3167L13.0166 24.6167C12.9506 24.886 12.8119 25.0895 12.6005 25.227C12.389 25.3646 12.1555 25.4056 11.8999 25.35L5.0166 23.9333C4.77215 23.8889 4.57493 23.7611 4.42493 23.55C4.27493 23.3389 4.22771 23.1056 4.28326 22.85C4.32771 22.6056 4.45826 22.4194 4.67493 22.2917C4.8916 22.1639 5.1166 22.1222 5.34993 22.1667L11.0499 23.2833L13.5166 10.95L10.0999 12.5667V16.0333C10.0999 16.3056 10.0063 16.5347 9.8191 16.7208C9.63185 16.9069 9.40685 17 9.1441 17C8.87021 17 8.6416 16.9069 8.45826 16.7208C8.27493 16.5347 8.18326 16.3056 8.18326 16.0333V11.8833C8.18326 11.687 8.23465 11.5096 8.33743 11.3509C8.44021 11.1923 8.58326 11.0698 8.7666 10.9833L13.6166 8.98334C14.3055 8.68334 14.7999 8.49445 15.0999 8.41667C15.3999 8.33889 15.6955 8.3 15.9866 8.3C16.4288 8.3 16.8194 8.39167 17.1583 8.575C17.4972 8.75834 17.7833 9.03334 18.0166 9.4L19.4166 11.6167C19.9277 12.4389 20.5944 13.1667 21.4166 13.8C22.2388 14.4333 23.1944 14.8333 24.2833 15C24.5555 15.0592 24.7819 15.1794 24.9624 15.3607C25.143 15.5419 25.2333 15.7576 25.2333 16.0079C25.2333 16.2693 25.141 16.4972 24.9566 16.6917C24.7721 16.8861 24.5588 16.9611 24.3166 16.9167C23.061 16.7944 21.9305 16.3889 20.9249 15.7C19.9194 15.0111 18.9722 14.0444 18.0833 12.8L16.7499 18.1667L19.4499 20.6667C19.5499 20.7567 19.6277 20.8622 19.6833 20.983C19.7388 21.1039 19.7666 21.2318 19.7666 21.3667V29.5667C19.7666 29.8389 19.673 30.0681 19.4858 30.2542C19.2985 30.4403 19.0735 30.5333 18.8108 30.5333C18.5369 30.5333 18.3083 30.4403 18.1249 30.2542C17.9416 30.0681 17.8499 29.8389 17.8499 29.5667ZM17.9859 6.91667C17.3286 6.91667 16.7638 6.68145 16.2916 6.211C15.8194 5.74054 15.5833 5.17665 15.5833 4.51934C15.5833 3.862 15.8185 3.29722 16.2889 2.825C16.7594 2.35278 17.3233 2.11667 17.9806 2.11667C18.6379 2.11667 19.2027 2.35189 19.6749 2.82233C20.1472 3.2928 20.3833 3.85669 20.3833 4.514C20.3833 5.17133 20.148 5.73611 19.6776 6.20834C19.2071 6.68056 18.6432 6.91667 17.9859 6.91667Z" fill="#EDF2F4"/>
</g>
</svg>
