<svg width="33" height="32" viewBox="0 0 33 32" fill="none" xmlns="http://www.w3.org/2000/svg">
<mask id="mask0_49_1128" style="mask-type:alpha" maskUnits="userSpaceOnUse" x="0" y="0" width="33" height="32">
<rect x="0.793457" width="32" height="32" fill="#D9D9D9"/>
</mask>
<g mask="url(#mask0_49_1128)">
<path d="M25.4936 30.6667C24.9603 30.6667 24.427 30.6222 23.8936 30.5333C23.3603 30.4444 22.8381 30.3222 22.327 30.1667L4.09361 23.5333C3.91584 23.4667 3.78806 23.35 3.71028 23.1833C3.6325 23.0167 3.62695 22.8444 3.69361 22.6667C3.76028 22.4889 3.87695 22.3611 4.04361 22.2833C4.21028 22.2056 4.3825 22.2 4.56028 22.2667L13.5603 25.5333L15.8936 19.5L10.5936 13.9667C10.0825 13.3889 9.8825 12.7333 9.99362 12C10.1047 11.2667 10.4825 10.7111 11.1269 10.3333L16.2936 7.33333C16.6047 7.15555 16.9381 7.06111 17.2936 7.05C17.6492 7.03888 17.9825 7.08888 18.2936 7.2C18.6047 7.31111 18.8881 7.48888 19.1436 7.73333C19.3992 7.97777 19.5825 8.26666 19.6936 8.6L20.1269 10.0333C20.5047 11.2333 21.0547 12.2 21.777 12.9333C22.4992 13.6667 23.3825 14.2111 24.427 14.5667L24.927 13.0333C24.9714 12.8556 25.0714 12.7278 25.2269 12.65C25.3825 12.5722 25.5492 12.5556 25.7269 12.6C25.9047 12.6444 26.0381 12.75 26.127 12.9167C26.2158 13.0833 26.2381 13.2556 26.1936 13.4333L25.0936 16.8333C23.5825 16.5222 22.2603 15.9222 21.1269 15.0333C19.9936 14.1444 19.1269 12.9444 18.5269 11.4333L14.1269 13.9667L17.8603 18.3333C17.9714 18.4667 18.0492 18.6278 18.0936 18.8167C18.1381 19.0056 18.1269 19.1889 18.0603 19.3667L15.4269 26.2L20.1936 27.9333L23.327 18.2C23.5492 18.2667 23.7603 18.3278 23.9603 18.3833C24.1603 18.4389 24.3603 18.4889 24.5603 18.5333L21.427 28.4L22.7936 28.8667C23.2158 29.0222 23.6492 29.1389 24.0936 29.2167C24.5381 29.2944 25.0047 29.3333 25.4936 29.3333C26.027 29.3333 26.5381 29.2944 27.027 29.2167C27.5158 29.1389 27.9936 29.0111 28.4603 28.8333C28.6381 28.7667 28.8158 28.7611 28.9936 28.8167C29.1714 28.8722 29.2825 28.9889 29.327 29.1667C29.3936 29.3667 29.377 29.5556 29.277 29.7333C29.177 29.9111 29.027 30.0333 28.827 30.1C28.2936 30.2778 27.7492 30.4167 27.1936 30.5167C26.6381 30.6167 26.0714 30.6667 25.4936 30.6667ZM23.0603 8.2C22.3936 8.2 21.8214 7.96111 21.3436 7.48333C20.8658 7.00555 20.6269 6.43333 20.6269 5.76666C20.6269 5.1 20.8658 4.52777 21.3436 4.04999C21.8214 3.57222 22.3936 3.33333 23.0603 3.33333C23.7269 3.33333 24.2992 3.57222 24.777 4.04999C25.2547 4.52777 25.4936 5.1 25.4936 5.76666C25.4936 6.43333 25.2547 7.00555 24.777 7.48333C24.2992 7.96111 23.7269 8.2 23.0603 8.2Z" fill="#EDF2F4"/>
</g>
</svg>
