<svg xmlns="http://www.w3.org/2000/svg" viewBox="0 0 120 150" x="0px" y="0px"><title>126 Dust</title><path d="M100,78.5a5.49,5.49,0,0,0-8.43-4.65,3.46,3.46,0,0,0-5.25-1.07A5.49,5.49,0,0,0,78,77.15,3.87,3.87,0,0,0,77,77a4,4,0,0,0-1.55,7.69A7,7,0,1,0,84.7,95.18a5.5,5.5,0,0,0,10.11-1.25,3.11,3.11,0,0,0,.69.07,3.5,3.5,0,0,0,.88-6.88A3.93,3.93,0,0,0,97,85a4,4,0,0,0-.29-1.47A5.49,5.49,0,0,0,100,78.5ZM79,93a1,1,0,1,1,1-1A1,1,0,0,1,79,93Zm1-6a1,1,0,1,1,1-1A1,1,0,0,1,80,87Zm2-7.14A1,1,0,1,1,82.86,81,1,1,0,0,1,82,79.86ZM84.5,93A1.5,1.5,0,1,1,86,91.5,1.5,1.5,0,0,1,84.5,93ZM89,86a1,1,0,1,1,1-1A1,1,0,0,1,89,86Zm2,6a1,1,0,1,1,1-1A1,1,0,0,1,91,92Zm1.5-11A1.5,1.5,0,1,1,94,79.5,1.5,1.5,0,0,1,92.5,81Z" fill="#550a0c"/><circle cx="105" cy="75" r="1"/><circle cx="68" cy="82" r="1"/><circle cx="104.5" cy="79.5" r="1.5"/><circle cx="68.5" cy="94.5" r="1.5"/><path d="M94,50H92A18,18,0,0,0,66.89,33.46,23,23,0,0,0,24.57,50.07,16,16,0,0,0,10,66h0A16,16,0,0,0,26,82H65a3,3,0,0,1,6,0h.09a5.95,5.95,0,0,1,5.33-7,7.48,7.48,0,0,1,9.78-4.52A5.38,5.38,0,0,1,88.5,70a5.46,5.46,0,0,1,3.64,1.39,7.48,7.48,0,0,1,9.74,5.82,3.51,3.51,0,0,1,.61-.56A3,3,0,1,1,107.82,74,15.9,15.9,0,0,0,110,66h0A16,16,0,0,0,94,50Z" fill="#550a0c"/><circle cx="66.5" cy="86.5" r="1.5"/></svg>