<svg width="200" height="250" xmlns="http://www.w3.org/2000/svg" version="1.1" viewBox="0 0 24 30" x="0px" y="0px"><path d="m12.000059 8.0000009v1c0.118805 0 0.325298 0.1003514 0.607421 0.2792969 0.282123 0.1789454 0.639877 0.4355469 1.142578 0.4355469 0.502702 0 0.860455-0.2566014 1.142579-0.4355469 0.282123-0.1789456 0.488616-0.2792969 0.607421-0.2792969 0.118806 0 0.325299 0.1003514 0.607422 0.2792969 0.282123 0.1789454 0.639877 0.4355469 1.142578 0.4355469 0.502702 0 0.860456-0.2566014 1.142579-0.4355469 0.282122-0.1789455 0.488616-0.2792969 0.607421-0.2792969 0.118806 0 0.3253 0.1003513 0.607422 0.2792969 0.282123 0.1789455 0.639877 0.4355469 1.142578 0.4355469s0.860456-0.2566015 1.142579-0.4355469c0.282122-0.1789455 0.488616-0.2792969 0.607421-0.2792969v-1c-0.502701 0-0.860455 0.2566013-1.142578 0.4355469-0.282122 0.1789455-0.488616 0.2792969-0.607422 0.2792969-0.118805 0-0.325299-0.1003515-0.607421-0.2792969-0.282123-0.1789455-0.639878-0.4355469-1.142579-0.4355469s-0.860455 0.2566014-1.142578 0.4355469c-0.282122 0.1789455-0.488616 0.2792969-0.607422 0.2792969-0.118805 0-0.325299-0.1003514-0.607421-0.2792969-0.282124-0.1789456-0.639877-0.4355469-1.142579-0.4355469-0.502701 0-0.860455 0.2566014-1.142578 0.4355469-0.282123 0.1789454-0.488614 0.2792969-0.607422 0.2792969-0.118805 0-0.325298-0.1003514-0.607421-0.2792969-0.282124-0.1789456-0.639877-0.4355469-1.142578-0.4355469z" style="color-rendering:auto;color:#000000;dominant-baseline:auto;font-feature-settings:normal;font-variant-alternates:normal;font-variant-caps:normal;font-variant-ligatures:normal;font-variant-numeric:normal;font-variant-position:normal;image-rendering:auto;isolation:auto;mix-blend-mode:normal;shape-padding:0;shape-rendering:auto;solid-color:#000000;text-decoration-color:#000000;text-decoration-line:none;text-decoration-style:solid;text-indent:0;text-orientation:mixed;text-transform:none;white-space:normal;" fill="#550a0c"/><path d="m12.000059 10.093751v1c0.118805 0 0.325298 0.102305 0.607421 0.28125s0.639877 0.435547 1.142578 0.435547c0.502702 0 0.860455-0.256601 1.142579-0.435547 0.282123-0.178946 0.488616-0.28125 0.607421-0.28125 0.118806 0 0.325299 0.102305 0.607422 0.28125s0.639877 0.435547 1.142578 0.435547c0.502702 0 0.860456-0.256601 1.142579-0.435547 0.282122-0.178945 0.488616-0.28125 0.607421-0.28125 0.118806 0 0.3253 0.102304 0.607422 0.28125 0.282123 0.178946 0.639877 0.435547 1.142578 0.435547s0.860456-0.256602 1.142579-0.435547c0.282122-0.178945 0.488616-0.28125 0.607421-0.28125v-1c-0.502701 0-0.860455 0.256601-1.142578 0.435547-0.282122 0.178945-0.488616 0.28125-0.607422 0.28125-0.118805 0-0.325299-0.102305-0.607421-0.28125-0.282123-0.178946-0.639878-0.435547-1.142579-0.435547s-0.860455 0.256601-1.142578 0.435547c-0.282122 0.178945-0.488616 0.28125-0.607422 0.28125-0.118805 0-0.325299-0.102305-0.607421-0.28125-0.282124-0.178946-0.639877-0.435547-1.142579-0.435547-0.502701 0-0.860455 0.256601-1.142578 0.435547-0.282123 0.178945-0.488614 0.28125-0.607422 0.28125-0.118805 0-0.325298-0.102305-0.607421-0.28125-0.282124-0.178946-0.639877-0.435547-1.142578-0.435547z" style="color-rendering:auto;color:#000000;dominant-baseline:auto;font-feature-settings:normal;font-variant-alternates:normal;font-variant-caps:normal;font-variant-ligatures:normal;font-variant-numeric:normal;font-variant-position:normal;image-rendering:auto;isolation:auto;mix-blend-mode:normal;shape-padding:0;shape-rendering:auto;solid-color:#000000;text-decoration-color:#000000;text-decoration-line:none;text-decoration-style:solid;text-indent:0;text-orientation:mixed;text-transform:none;white-space:normal;" fill="#550a0c"/><path d="m12.000059 12.189454v1c0.118805 0 0.325298 0.100352 0.607421 0.279297s0.639877 0.435547 1.142578 0.435547c0.502702 0 0.860455-0.256601 1.142579-0.435547 0.282123-0.178946 0.488616-0.279297 0.607421-0.279297 0.118806 0 0.325299 0.100352 0.607422 0.279297s0.639877 0.435547 1.142578 0.435547c0.502702 0 0.860456-0.256602 1.142579-0.435547 0.282122-0.178945 0.488616-0.279297 0.607421-0.279297 0.118806 0 0.3253 0.100351 0.607422 0.279297 0.282123 0.178946 0.639877 0.435547 1.142578 0.435547s0.860456-0.256602 1.142579-0.435547c0.282122-0.178945 0.488616-0.279297 0.607421-0.279297v-1c-0.502701 0-0.860455 0.256601-1.142578 0.435547-0.282122 0.178946-0.488616 0.279297-0.607422 0.279297-0.118805 0-0.325299-0.100352-0.607421-0.279297-0.282123-0.178945-0.639878-0.435547-1.142579-0.435547s-0.860455 0.256601-1.142578 0.435547c-0.282122 0.178946-0.488616 0.279297-0.607422 0.279297-0.118805 0-0.325299-0.100351-0.607421-0.279297-0.282124-0.178946-0.639877-0.435547-1.142579-0.435547-0.502701 0-0.860455 0.256602-1.142578 0.435547s-0.488614 0.279297-0.607422 0.279297c-0.118805 0-0.325298-0.100351-0.607421-0.279297-0.282124-0.178946-0.639877-0.435547-1.142578-0.435547z" style="color-rendering:auto;color:#000000;dominant-baseline:auto;font-feature-settings:normal;font-variant-alternates:normal;font-variant-caps:normal;font-variant-ligatures:normal;font-variant-numeric:normal;font-variant-position:normal;image-rendering:auto;isolation:auto;mix-blend-mode:normal;shape-padding:0;shape-rendering:auto;solid-color:#000000;text-decoration-color:#000000;text-decoration-line:none;text-decoration-style:solid;text-indent:0;text-orientation:mixed;text-transform:none;white-space:normal;" fill="#550a0c"/><path d="m12.000059 14.283204v1c0.118805 0 0.325298 0.102305 0.607421 0.28125 0.282123 0.178946 0.639877 0.435547 1.142578 0.435547 0.502702 0 0.860455-0.256601 1.142579-0.435547 0.282123-0.178945 0.488616-0.28125 0.607421-0.28125 0.118806 0 0.325299 0.102305 0.607422 0.28125 0.282123 0.178946 0.639878 0.435547 1.142578 0.435547 0.502702 0 0.860456-0.256601 1.142579-0.435547 0.282122-0.178945 0.488616-0.28125 0.607421-0.28125 0.118806 0 0.3253 0.102305 0.607422 0.28125 0.282123 0.178946 0.639877 0.435547 1.142578 0.435547s0.860456-0.256601 1.142579-0.435547c0.282122-0.178945 0.488616-0.28125 0.607421-0.28125v-1c-0.502701 0-0.860455 0.256601-1.142578 0.435547-0.282122 0.178946-0.488616 0.28125-0.607422 0.28125-0.118805 0-0.325299-0.102305-0.607421-0.28125-0.282123-0.178945-0.639878-0.435547-1.142579-0.435547s-0.860455 0.256602-1.142578 0.435547c-0.282122 0.178946-0.488616 0.28125-0.607422 0.28125-0.118805 0-0.325299-0.102304-0.607421-0.28125-0.282124-0.178946-0.639877-0.435547-1.142579-0.435547-0.502701 0-0.860455 0.256602-1.142578 0.435547s-0.488614 0.28125-0.607422 0.28125c-0.118805 0-0.325298-0.102304-0.607421-0.28125-0.282124-0.178946-0.639877-0.435547-1.142578-0.435547z" style="color-rendering:auto;color:#000000;dominant-baseline:auto;font-feature-settings:normal;font-variant-alternates:normal;font-variant-caps:normal;font-variant-ligatures:normal;font-variant-numeric:normal;font-variant-position:normal;image-rendering:auto;isolation:auto;mix-blend-mode:normal;shape-padding:0;shape-rendering:auto;solid-color:#000000;text-decoration-color:#000000;text-decoration-line:none;text-decoration-style:solid;text-indent:0;text-orientation:mixed;text-transform:none;white-space:normal;" fill="#550a0c"/><path d="m10.499208 7.0003002a5 5 0 0 0-5 4.9999998 5 5 0 0 0 5 5 5 5 0 0 0 0.5-0.03125v-9.9433591a5 5 0 0 0-0.5-0.025391z" style="paint-order:stroke fill markers;" fill="#550a0c"/><path transform="scale(1,-1)" d="m10.000173-21.000231h1v2h-1z" style="paint-order:stroke fill markers;" fill="#550a0c"/><path d="m10.000173 2.9997685h1v2h-1z" style="paint-order:stroke fill markers;" fill="#550a0c"/><path transform="rotate(-90)" d="m-12.5 1.4999416h1v2h-1z" style="paint-order:stroke fill markers;" fill="#550a0c"/><path transform="rotate(-45)" d="m-1.5605375 6.9097939h1v2h-1z" style="paint-order:stroke fill markers;" fill="#550a0c"/><path transform="matrix(.70710678 .70710678 .70710678 -.70710678 0 0)" d="m15.410025-10.060768h1v1.9999999h-1z" style="paint-order:stroke fill markers;" fill="#550a0c"/><text x="0" y="39" fill="#550a0c" font-size="5px" font-weight="bold" font-family="'Helvetica Neue', Helvetica, Arial-Unicode, Arial, Sans-serif"></text><text x="0" y="44" fill="#550a0c" font-size="5px" font-weight="bold" font-family="'Helvetica Neue', Helvetica, Arial-Unicode, Arial, Sans-serif"></text></svg>