<svg width="32" height="32" viewBox="0 0 32 32" fill="none" xmlns="http://www.w3.org/2000/svg">
<mask id="mask0_49_1131" style="mask-type:alpha" maskUnits="userSpaceOnUse" x="0" y="0" width="32" height="32">
<rect width="32" height="32" fill="#D9D9D9"/>
</mask>
<g mask="url(#mask0_49_1131)">
<path d="M16.0003 24.3667L9.80033 28.1C9.62256 28.2111 9.43367 28.2611 9.23367 28.25C9.03367 28.2389 8.85589 28.1778 8.70034 28.0667C8.54478 27.9556 8.42811 27.8111 8.35034 27.6334C8.27256 27.4556 8.25589 27.2556 8.30033 27.0333L9.93367 19.9667L4.467 15.2C4.28922 15.0445 4.18367 14.8722 4.15033 14.6833C4.117 14.4945 4.12256 14.3111 4.167 14.1333C4.21145 13.9556 4.31145 13.8056 4.467 13.6833C4.62256 13.5611 4.81145 13.4889 5.03367 13.4667L12.267 12.8333L15.067 6.16668C15.1559 5.96668 15.2892 5.81668 15.467 5.71668C15.6448 5.61668 15.8226 5.56668 16.0003 5.56668C16.1781 5.56668 16.3559 5.61668 16.5337 5.71668C16.7114 5.81668 16.8448 5.96668 16.9337 6.16668L19.7337 12.8333L26.967 13.4667C27.1892 13.4889 27.3781 13.5611 27.5337 13.6833C27.6892 13.8056 27.7892 13.9556 27.8337 14.1333C27.8781 14.3111 27.8837 14.4945 27.8503 14.6833C27.817 14.8722 27.7114 15.0445 27.5337 15.2L22.067 19.9667L23.7003 27.0333C23.7448 27.2556 23.7281 27.4556 23.6503 27.6334C23.5726 27.8111 23.4559 27.9556 23.3003 28.0667C23.1448 28.1778 22.967 28.2389 22.767 28.25C22.567 28.2611 22.3781 28.2111 22.2003 28.1L16.0003 24.3667Z" fill="#EDF2F4"/>
</g>
</svg>
