<svg width="31" height="32" viewBox="0 0 31 32" fill="none" xmlns="http://www.w3.org/2000/svg">
<path d="M2.26291 32H1.88973C1.57875 32 1.32374 31.9005 1.12471 31.7015C0.925686 31.5024 0.826172 31.2474 0.826172 30.9364C0.826172 30.6255 0.925686 30.3673 1.12471 30.1621C1.32374 29.9569 1.57875 29.8542 1.88973 29.8542H2.26291C2.90975 29.8542 3.54726 29.764 4.17544 29.5837C4.80363 29.4033 5.42248 29.0768 6.032 28.6041C6.21859 28.4424 6.45494 28.3615 6.74104 28.3615C7.02714 28.3615 7.26971 28.4424 7.46874 28.6041C8.06582 29.0768 8.67846 29.4033 9.30664 29.5837C9.93482 29.764 10.5723 29.8542 11.2192 29.8542C11.8411 29.8542 12.4724 29.7578 13.1131 29.565C13.7537 29.3722 14.3787 29.0519 14.9883 28.6041C15.1997 28.4673 15.4423 28.3957 15.716 28.3895C15.9896 28.3833 16.226 28.4548 16.425 28.6041C17.0221 29.0768 17.6347 29.4033 18.2629 29.5837C18.8911 29.764 19.5286 29.8542 20.1754 29.8542C20.7974 29.8542 21.4287 29.7578 22.0693 29.565C22.7099 29.3722 23.335 29.0519 23.9445 28.6041C24.1436 28.4673 24.3799 28.3988 24.6536 28.3988C24.9272 28.3988 25.1636 28.4673 25.3626 28.6041C25.9721 29.0519 26.5972 29.3722 27.2378 29.565C27.8785 29.7578 28.5097 29.8542 29.1317 29.8542H29.5049C29.8159 29.8542 30.074 29.9569 30.2792 30.1621C30.4845 30.3673 30.5871 30.6255 30.5871 30.9364C30.5871 31.2474 30.4845 31.5024 30.2792 31.7015C30.074 31.9005 29.8159 32 29.5049 32H29.1317C28.4102 32 27.6732 31.8912 26.9206 31.6735C26.1681 31.4558 25.4124 31.0484 24.6536 30.4513C23.8948 31.0484 23.1391 31.4558 22.3865 31.6735C21.6339 31.8912 20.8969 32 20.1754 32C19.454 32 18.7169 31.8912 17.9644 31.6735C17.2118 31.4558 16.4561 31.0484 15.6973 30.4513C14.9385 31.0484 14.1828 31.4558 13.4303 31.6735C12.6777 31.8912 11.9407 32 11.2192 32C10.4977 32 9.76067 31.8912 9.0081 31.6735C8.25552 31.4558 7.49984 31.0484 6.74104 30.4513C5.98225 31.0484 5.22656 31.4558 4.47399 31.6735C3.72141 31.8912 2.98438 32 2.26291 32ZM15.2495 12.3522L21.2577 17.0729V23.0811C21.6557 23.3796 22.0569 23.6812 22.4612 23.986C22.8654 24.2908 23.2728 24.6049 23.6833 24.9283C23.1484 25.3637 22.5887 25.712 22.004 25.9732C21.4194 26.2344 20.8098 26.365 20.1754 26.365C19.342 26.365 18.5397 26.1411 17.7684 25.6933C16.9972 25.2455 16.3068 24.6484 15.6973 23.902C15.0878 24.6484 14.3974 25.2455 13.6262 25.6933C12.8549 26.1411 12.0526 26.365 11.2192 26.365C11.2316 26.365 11.2285 26.3681 11.2098 26.3743C11.1912 26.3806 11.1819 26.3775 11.1819 26.365C8.50742 24.4867 6.42384 22.7981 4.93113 21.2991C3.43842 19.8002 2.69206 18.5469 2.69206 17.5394C2.69206 16.9423 2.94707 16.5442 3.45708 16.3452C3.96709 16.1462 4.48953 16.0466 5.02442 16.0466C5.73346 16.0466 6.6011 16.1742 7.62734 16.4292C8.65358 16.6842 9.80732 17.0418 11.0886 17.502L10.2676 12.3708C10.1681 11.7986 10.1898 11.2731 10.3329 10.7942C10.4759 10.3153 10.7589 9.93897 11.1819 9.66531L15.2308 6.94111C15.0318 6.91623 14.7395 6.86647 14.3539 6.79184C13.9683 6.7172 13.564 6.64257 13.141 6.56793C12.7181 6.49329 12.3138 6.41244 11.9282 6.32537C11.5426 6.23829 11.2565 6.17609 11.0699 6.13878L7.91655 8.26589C7.66777 8.44004 7.40032 8.50846 7.11422 8.47114C6.82812 8.43382 6.60421 8.28455 6.4425 8.02332C6.28079 7.77454 6.22481 7.50398 6.27457 7.21166C6.32433 6.91934 6.47982 6.69232 6.74104 6.53061L10.2116 4.14227C10.3235 4.06764 10.4448 4.01477 10.5754 3.98367C10.7061 3.95258 10.846 3.94325 10.9953 3.95569L18.6827 5.37376C18.944 5.43596 19.2176 5.55724 19.5037 5.73761C19.7898 5.91798 20.0262 6.17609 20.2128 6.51195L21.5189 8.82566C22.0911 9.83324 22.8468 10.6791 23.7859 11.3633C24.7251 12.0474 25.7856 12.489 26.9673 12.688C27.2534 12.7378 27.4928 12.8777 27.6856 13.1079C27.8785 13.338 27.9749 13.5961 27.9749 13.8822C27.9749 14.1683 27.8753 14.4109 27.6763 14.6099C27.4773 14.8089 27.2409 14.8836 26.9673 14.8338C25.3999 14.585 23.9601 13.9942 22.6477 13.0612C21.3354 12.1283 20.2687 10.9466 19.4477 9.51604L15.2495 12.3522ZM12.8052 14.1434L13.4582 18.5283C14.4658 19.0134 15.4174 19.5017 16.3131 19.993C17.2087 20.4844 18.1416 21.0224 19.1119 21.607V18.5283L12.8052 14.1434ZM23.1609 5.37376C22.427 5.37376 21.7957 5.10943 21.267 4.58076C20.7383 4.05209 20.474 3.4208 20.474 2.68688C20.474 1.95296 20.7383 1.32167 21.267 0.793003C21.7957 0.264334 22.427 0 23.1609 0C23.8948 0 24.5261 0.264334 25.0547 0.793003C25.5834 1.32167 25.8477 1.95296 25.8477 2.68688C25.8477 3.4208 25.5834 4.05209 25.0547 4.58076C24.5261 5.10943 23.8948 5.37376 23.1609 5.37376Z" fill="#EDF2F4"/>
</svg>
