<svg width="32" height="32" viewBox="0 -4 42 42" fill="none" xmlns="http://www.w3.org/2000/svg">
<g id="24 / notifications / alert-triangle">
<path id="icon" fill-rule="evenodd" clip-rule="evenodd" d="M39.2727 27.9181L27.0134 6.96083C25.7826 4.8272 23.4887 3.50291 21.0078 3.5C18.5267 3.4971 16.232 4.81592 14.9859 6.96092L2.72202 27.9258C1.45035 30.0641 1.42158 32.7434 2.65334 34.9286C3.88613 37.1156 6.19443 38.4766 8.70522 38.497L33.2715 38.4971C35.8084 38.4724 38.1123 37.1156 39.3449 34.9306C40.576 32.7481 40.5485 30.0747 39.2727 27.9181ZM5.73668 29.704L18.0096 8.72359C18.6312 7.65369 19.7711 6.99856 21.0037 7C22.2362 7.00145 23.3758 7.65928 23.987 8.71889L36.256 29.6927C36.8991 30.7799 36.9129 32.1182 36.2965 33.2109C35.6792 34.3052 34.5252 34.9848 33.2544 34.9972L8.71946 34.997C7.4759 34.9869 6.31968 34.3052 5.7023 33.2099C5.08559 32.1159 5.1 30.7745 5.73668 29.704ZM21.0006 31.4971C21.9674 31.4971 22.7512 30.7136 22.7512 29.7471C22.7512 28.7806 21.9674 27.9971 21.0006 27.9971C20.0338 27.9971 19.25 28.7806 19.25 29.7471C19.25 30.7136 20.0338 31.4971 21.0006 31.4971ZM22.7564 13.9971H19.2552V26.2471H22.7564V13.9971Z" fill="#EDF2F4"/>
</g>
</svg>
