<svg width="65" height="64" viewBox="0 0 65 64" fill="none" xmlns="http://www.w3.org/2000/svg">
<g id="camping">
<mask id="mask0_37_1261" style="mask-type:alpha" maskUnits="userSpaceOnUse" x="0" y="0" width="65" height="64">
<rect id="Bounding box" x="0.166504" width="64" height="64" fill="#D9D9D9"/>
</mask>
<g mask="url(#mask0_37_1261)">
<path id="camping_2" d="M5.59961 56.6666V47.7666C5.59961 47.3444 5.66072 46.9389 5.78294 46.55C5.90516 46.1611 6.09961 45.8 6.36628 45.4666L29.7996 13.7333L26.4996 9.33332C26.4107 9.22221 26.5218 8.91665 26.8329 8.41665C27.1441 7.91665 27.4329 7.44999 27.6996 7.01665C27.9663 6.58332 28.0941 6.27221 28.0829 6.08332C28.0718 5.89443 27.6996 6.06665 26.9663 6.59999C27.3663 6.26665 27.8274 6.15554 28.3496 6.26665C28.8718 6.37776 29.2996 6.63332 29.6329 7.03332L32.1663 10.5333L34.7663 6.96665C35.0996 6.56665 35.5218 6.32221 36.0329 6.23332C36.5441 6.14443 37.0218 6.26665 37.4663 6.59999C37.8663 6.93332 38.1107 7.3611 38.1996 7.88332C38.2885 8.40554 38.1663 8.86665 37.8329 9.26665L34.5996 13.7333L57.9996 45.4666C58.2441 45.8 58.4329 46.1611 58.5663 46.55C58.6996 46.9389 58.7663 47.3444 58.7663 47.7666V56.6666C58.7663 57.2222 58.5829 57.6778 58.2163 58.0333C57.8496 58.3889 57.3885 58.5666 56.8329 58.5666H7.49961C6.94405 58.5666 6.4885 58.3889 6.13294 58.0333C5.77739 57.6778 5.59961 57.2222 5.59961 56.6666ZM21.5996 54.7333H42.7663L32.1663 39.9333L21.5996 54.7333Z" fill="#EDF2F4"/>
</g>
</g>
</svg>
