<svg width="65" height="64" viewBox="0 0 65 64" fill="none" xmlns="http://www.w3.org/2000/svg">
<g id="directions_run">
<mask id="mask0_37_1241" style="mask-type:alpha" maskUnits="userSpaceOnUse" x="0" y="0" width="65" height="64">
<rect id="Bounding box" x="0.5" width="64" height="64" fill="#D9D9D9"/>
</mask>
<g mask="url(#mask0_37_1241)">
<path id="directions_run_2" d="M36.1999 59.1333V45.2667L28.9332 38.6333L26.5332 49.2333C26.4013 49.772 26.1239 50.179 25.7009 50.4541C25.278 50.7291 24.811 50.8111 24.2999 50.7L10.5332 47.8667C10.0443 47.7778 9.64986 47.5222 9.34986 47.1C9.04986 46.6778 8.95542 46.2111 9.06653 45.7C9.15542 45.2111 9.41653 44.8389 9.84986 44.5833C10.2832 44.3278 10.7332 44.2444 11.1999 44.3333L22.5999 46.5667L27.5332 21.9L20.6999 25.1333V32.0667C20.6999 32.6111 20.5126 33.0694 20.1382 33.4417C19.7637 33.8139 19.3137 34 18.7882 34C18.2404 34 17.7832 33.8139 17.4165 33.4417C17.0499 33.0694 16.8665 32.6111 16.8665 32.0667V23.7667C16.8665 23.3741 16.9693 23.0192 17.1749 22.7019C17.3804 22.3846 17.6665 22.1395 18.0332 21.9667L27.7332 17.9667C29.111 17.3667 30.0999 16.9889 30.6999 16.8333C31.2999 16.6778 31.891 16.6 32.4732 16.6C33.3576 16.6 34.1388 16.7833 34.8165 17.15C35.4943 17.5167 36.0665 18.0667 36.5332 18.8L39.3332 23.2333C40.3554 24.8778 41.6888 26.3333 43.3332 27.6C44.9776 28.8667 46.8888 29.6667 49.0665 30C49.611 30.1184 50.0638 30.3588 50.4249 30.7213C50.786 31.0838 50.9665 31.5153 50.9665 32.0159C50.9665 32.5386 50.7821 32.9944 50.4131 33.3833C50.0442 33.7722 49.6175 33.9222 49.1332 33.8333C46.6221 33.5889 44.361 32.7778 42.3499 31.4C40.3388 30.0222 38.4443 28.0889 36.6665 25.6L33.9999 36.3333L39.3999 41.3333C39.5999 41.5134 39.7554 41.7243 39.8665 41.9661C39.9776 42.2078 40.0332 42.4636 40.0332 42.7333V59.1333C40.0332 59.6778 39.846 60.1361 39.4715 60.5083C39.097 60.8806 38.647 61.0667 38.1215 61.0667C37.5738 61.0667 37.1165 60.8806 36.7499 60.5083C36.3832 60.1361 36.1999 59.6778 36.1999 59.1333ZM36.4719 13.8333C35.1572 13.8333 34.0276 13.3629 33.0832 12.422C32.1388 11.4811 31.6665 10.3533 31.6665 9.03867C31.6665 7.724 32.137 6.59445 33.0779 5.65C34.0188 4.70556 35.1466 4.23334 36.4612 4.23334C37.7759 4.23334 38.9054 4.70378 39.8499 5.64467C40.7943 6.5856 41.2665 7.71338 41.2665 9.028C41.2665 10.3427 40.7961 11.4722 39.8552 12.4167C38.9143 13.3611 37.7865 13.8333 36.4719 13.8333Z" fill="#EDF2F4"/>
</g>
</g>
</svg>
