<svg width="65" height="64" viewBox="0 0 65 64" fill="none" xmlns="http://www.w3.org/2000/svg">
<g id="downhill_skiing">
<mask id="mask0_37_1365" style="mask-type:alpha" maskUnits="userSpaceOnUse" x="0" y="0" width="65" height="64">
<rect id="Bounding box" x="0.833496" width="64" height="64" fill="#D9D9D9"/>
</mask>
<g mask="url(#mask0_37_1365)">
<path id="downhill_skiing_2" d="M50.2333 61.3333C49.1667 61.3333 48.1 61.2444 47.0333 61.0667C45.9667 60.8889 44.9222 60.6444 43.9 60.3333L7.43332 47.0667C7.07777 46.9333 6.82221 46.7 6.66666 46.3667C6.5111 46.0333 6.49999 45.6889 6.63332 45.3333C6.76666 44.9778 6.99999 44.7222 7.33332 44.5667C7.66666 44.4111 8.0111 44.4 8.36666 44.5333L26.3667 51.0667L31.0333 39L20.4333 27.9333C19.4111 26.7778 19.0111 25.4667 19.2333 24C19.4555 22.5333 20.2111 21.4222 21.5 20.6667L31.8333 14.6667C32.4555 14.3111 33.1222 14.1222 33.8333 14.1C34.5444 14.0778 35.2111 14.1778 35.8333 14.4C36.4555 14.6222 37.0222 14.9778 37.5333 15.4667C38.0444 15.9555 38.4111 16.5333 38.6333 17.2L39.5 20.0667C40.2555 22.4667 41.3555 24.4 42.8 25.8667C44.2444 27.3333 46.0111 28.4222 48.1 29.1333L49.1 26.0667C49.1889 25.7111 49.3889 25.4555 49.7 25.3C50.0111 25.1444 50.3444 25.1111 50.7 25.2C51.0555 25.2889 51.3222 25.5 51.5 25.8333C51.6778 26.1667 51.7222 26.5111 51.6333 26.8667L49.4333 33.6667C46.4111 33.0444 43.7667 31.8444 41.5 30.0667C39.2333 28.2889 37.5 25.8889 36.3 22.8667L27.5 27.9333L34.9667 36.6667C35.1889 36.9333 35.3444 37.2555 35.4333 37.6333C35.5222 38.0111 35.5 38.3778 35.3667 38.7333L30.1 52.4L39.6333 55.8667L45.9 36.4C46.3444 36.5333 46.7667 36.6555 47.1667 36.7667C47.5667 36.8778 47.9667 36.9778 48.3667 37.0667L42.1 56.8L44.8333 57.7333C45.6778 58.0444 46.5444 58.2778 47.4333 58.4333C48.3222 58.5889 49.2556 58.6667 50.2333 58.6667C51.3 58.6667 52.3222 58.5889 53.3 58.4333C54.2778 58.2778 55.2333 58.0222 56.1667 57.6667C56.5222 57.5333 56.8778 57.5222 57.2333 57.6333C57.5889 57.7444 57.8111 57.9778 57.9 58.3333C58.0333 58.7333 58 59.1111 57.8 59.4667C57.6 59.8222 57.3 60.0667 56.9 60.2C55.8333 60.5555 54.7444 60.8333 53.6333 61.0333C52.5222 61.2333 51.3889 61.3333 50.2333 61.3333ZM45.3667 16.4C44.0333 16.4 42.8889 15.9222 41.9333 14.9667C40.9778 14.0111 40.5 12.8667 40.5 11.5333C40.5 10.2 40.9778 9.05555 41.9333 8.09999C42.8889 7.14443 44.0333 6.66666 45.3667 6.66666C46.7 6.66666 47.8444 7.14443 48.8 8.09999C49.7556 9.05555 50.2333 10.2 50.2333 11.5333C50.2333 12.8667 49.7556 14.0111 48.8 14.9667C47.8444 15.9222 46.7 16.4 45.3667 16.4Z" fill="#EDF2F4"/>
</g>
</g>
</svg>
