<svg width="65" height="64" viewBox="0 0 65 64" fill="none" xmlns="http://www.w3.org/2000/svg">
<g id="phishing">
<mask id="mask0_37_1277" style="mask-type:alpha" maskUnits="userSpaceOnUse" x="0" y="0" width="65" height="64">
<rect id="Bounding box" x="0.833496" width="64" height="64" fill="#D9D9D9"/>
</mask>
<g mask="url(#mask0_37_1277)">
<path id="phishing_2" d="M30.2167 55.6667C25.85 55.6667 22.1389 54.1333 19.0833 51.0667C16.0278 48 14.5 44.2712 14.5 39.8802V28.0835C14.5 27.6834 14.7056 27.4083 15.1167 27.2583C15.5278 27.1083 15.8778 27.1778 16.1667 27.4667L24.5937 35.8913C24.9757 36.2971 25.1667 36.7591 25.1667 37.2772C25.1667 37.7953 24.986 38.2398 24.6247 38.6105C24.2304 38.9813 23.7674 39.1667 23.2355 39.1667C22.7037 39.1667 22.2474 38.9778 21.8667 38.6L18.3333 35.0667V39.8667C18.3333 43.1725 19.4889 45.9934 21.8 48.3294C24.1111 50.6654 26.9167 51.8333 30.2167 51.8333C33.5167 51.8333 36.3222 50.6665 38.6333 48.3327C40.9444 45.999 42.1 43.1773 42.1 39.8675V31.0023C40.5667 30.5341 39.3056 29.6636 38.3167 28.3909C37.3278 27.1181 36.8333 25.6792 36.8333 24.0742C36.8333 22.4692 37.3278 21.0278 38.3167 19.75C39.3056 18.4722 40.5667 17.6 42.1 17.1333V7.56666C42.1 7.02222 42.2817 6.56389 42.645 6.19166C43.0084 5.81944 43.4639 5.63333 44.0117 5.63333C44.5594 5.63333 45.0167 5.81944 45.3833 6.19166C45.75 6.56389 45.9333 7.02222 45.9333 7.56666V17.1333C47.4422 17.5944 48.6917 18.4627 49.6817 19.7383C50.6717 21.0138 51.1667 22.4541 51.1667 24.0591C51.1667 25.6718 50.6758 27.1184 49.6941 28.3987C48.7125 29.6791 47.4589 30.5351 45.9333 30.9667V39.8667C45.9333 44.2426 44.4056 47.9699 41.35 51.0486C38.2944 54.1273 34.5833 55.6667 30.2167 55.6667ZM43.9883 27.4C44.9294 27.4 45.7222 27.0817 46.3667 26.445C47.0111 25.8084 47.3333 25.0195 47.3333 24.0783C47.3333 23.1372 47.015 22.3444 46.3783 21.7C45.7417 21.0556 44.9528 20.7333 44.0117 20.7333C43.0706 20.7333 42.2778 21.0517 41.6333 21.6883C40.9889 22.325 40.6667 23.1138 40.6667 24.055C40.6667 24.9961 40.985 25.7889 41.6217 26.4333C42.2583 27.0778 43.0472 27.4 43.9883 27.4Z" fill="#EDF2F4"/>
</g>
</g>
</svg>
