<svg width="65" height="64" viewBox="0 0 65 64" fill="none" xmlns="http://www.w3.org/2000/svg">
<g id="hiking">
<mask id="mask0_37_1349" style="mask-type:alpha" maskUnits="userSpaceOnUse" x="0" y="0" width="65" height="64">
<rect id="Bounding box" x="0.5" width="64" height="64" fill="#D9D9D9"/>
</mask>
<g mask="url(#mask0_37_1349)">
<path id="hiking_2" d="M28.5 38.7333L23.9 59.6667C23.8111 60.1556 23.5667 60.5556 23.1667 60.8667C22.7667 61.1778 22.3222 61.3333 21.8334 61.3333C21.1667 61.3333 20.6222 61.0778 20.2 60.5667C19.7778 60.0555 19.6334 59.4889 19.7667 58.8667L27.3667 20C27.5889 18.9333 28.1 18.1111 28.9 17.5333C29.7 16.9556 30.5445 16.6667 31.4334 16.6667C32.3222 16.6667 33.1556 16.8667 33.9334 17.2667C34.7111 17.6667 35.3445 18.2444 35.8334 19L38.4334 23.2667C39.2778 24.6889 40.4445 25.9556 41.9334 27.0667C43.4222 28.1778 45.1667 29.0444 47.1667 29.6667V26C47.1667 25.6444 47.3 25.3333 47.5667 25.0667C47.8334 24.8 48.1445 24.6667 48.5 24.6667C48.8556 24.6667 49.1667 24.8 49.4334 25.0667C49.7 25.3333 49.8334 25.6444 49.8334 26V60C49.8334 60.3556 49.7 60.6667 49.4334 60.9333C49.1667 61.2 48.8556 61.3333 48.5 61.3333C48.1445 61.3333 47.8334 61.2 47.5667 60.9333C47.3 60.6667 47.1667 60.3556 47.1667 60V33.7333C44.9 33.2444 42.7667 32.3778 40.7667 31.1333C38.7667 29.8889 36.9889 28.3556 35.4334 26.5333L33.5 36.2L38.5667 41C38.7889 41.2222 38.9445 41.4556 39.0334 41.7C39.1222 41.9444 39.1667 42.2 39.1667 42.4667V59.3333C39.1667 59.9111 38.9778 60.3889 38.6 60.7667C38.2222 61.1444 37.7445 61.3333 37.1667 61.3333C36.5889 61.3333 36.1111 61.1444 35.7334 60.7667C35.3556 60.3889 35.1667 59.9111 35.1667 59.3333V45.0667L28.5 38.7333ZM18.5 34.1333L15.4334 33.5333C14.9 33.4444 14.4889 33.1667 14.2 32.7C13.9111 32.2333 13.8111 31.7333 13.9 31.2L15.9 20.7333C16.1222 19.4444 16.8111 18.4556 17.9667 17.7667C19.1222 17.0778 20.3889 16.8667 21.7667 17.1333C22.3 17.2222 22.7222 17.5111 23.0334 18C23.3445 18.4889 23.4556 19 23.3667 19.5333L20.8334 32.5333C20.7445 33.0667 20.4667 33.4889 20 33.8C19.5334 34.1111 19.0334 34.2222 18.5 34.1333ZM35.8334 13.7333C34.5 13.7333 33.3556 13.2556 32.4 12.3C31.4445 11.3444 30.9667 10.2 30.9667 8.86667C30.9667 7.53333 31.4445 6.38889 32.4 5.43333C33.3556 4.47778 34.5 4 35.8334 4C37.1667 4 38.3111 4.47778 39.2667 5.43333C40.2222 6.38889 40.7 7.53333 40.7 8.86667C40.7 10.2 40.2222 11.3444 39.2667 12.3C38.3111 13.2556 37.1667 13.7333 35.8334 13.7333Z" fill="#EDF2F4"/>
</g>
</g>
</svg>
