<svg width="65" height="64" viewBox="0 0 65 64" fill="none" xmlns="http://www.w3.org/2000/svg">
<g id="surfing">
<mask id="mask0_266_3011" style="mask-type:alpha" maskUnits="userSpaceOnUse" x="0" y="0" width="65" height="64">
<rect id="Bounding box" x="0.166504" width="64" height="64" fill="#D9D9D9"/>
</mask>
<g mask="url(#mask0_266_3011)">
<path id="surfing_2" d="M8.16628 61.2333H7.49961C6.94405 61.2333 6.4885 61.0555 6.13294 60.7C5.77739 60.3444 5.59961 59.8889 5.59961 59.3333C5.59961 58.7778 5.77739 58.3167 6.13294 57.95C6.4885 57.5833 6.94405 57.4 7.49961 57.4H8.16628C9.32183 57.4 10.4607 57.2389 11.5829 56.9167C12.7052 56.5944 13.8107 56.0111 14.8996 55.1667C15.2329 54.8778 15.6552 54.7333 16.1663 54.7333C16.6774 54.7333 17.1107 54.8778 17.4663 55.1667C18.5329 56.0111 19.6274 56.5944 20.7496 56.9167C21.8718 57.2389 23.0107 57.4 24.1663 57.4C25.2774 57.4 26.4052 57.2278 27.5496 56.8833C28.6941 56.5389 29.8107 55.9667 30.8996 55.1667C31.2774 54.9222 31.7107 54.7944 32.1996 54.7833C32.6885 54.7722 33.1107 54.9 33.4663 55.1667C34.5329 56.0111 35.6274 56.5944 36.7496 56.9167C37.8718 57.2389 39.0107 57.4 40.1663 57.4C41.2774 57.4 42.4052 57.2278 43.5496 56.8833C44.6941 56.5389 45.8107 55.9667 46.8996 55.1667C47.2552 54.9222 47.6774 54.8 48.1663 54.8C48.6552 54.8 49.0774 54.9222 49.4329 55.1667C50.5218 55.9667 51.6385 56.5389 52.7829 56.8833C53.9274 57.2278 55.0552 57.4 56.1663 57.4H56.8329C57.3885 57.4 57.8496 57.5833 58.2163 57.95C58.5829 58.3167 58.7663 58.7778 58.7663 59.3333C58.7663 59.8889 58.5829 60.3444 58.2163 60.7C57.8496 61.0555 57.3885 61.2333 56.8329 61.2333H56.1663C54.8774 61.2333 53.5607 61.0389 52.2163 60.65C50.8718 60.2611 49.5218 59.5333 48.1663 58.4667C46.8107 59.5333 45.4607 60.2611 44.1163 60.65C42.7718 61.0389 41.4552 61.2333 40.1663 61.2333C38.8774 61.2333 37.5607 61.0389 36.2163 60.65C34.8718 60.2611 33.5218 59.5333 32.1663 58.4667C30.8107 59.5333 29.4607 60.2611 28.1163 60.65C26.7718 61.0389 25.4552 61.2333 24.1663 61.2333C22.8774 61.2333 21.5607 61.0389 20.2163 60.65C18.8718 60.2611 17.5218 59.5333 16.1663 58.4667C14.8107 59.5333 13.4607 60.2611 12.1163 60.65C10.7718 61.0389 9.45517 61.2333 8.16628 61.2333ZM31.3663 26.1333L42.0996 34.5667V45.3C42.8107 45.8333 43.5274 46.3722 44.2496 46.9167C44.9718 47.4611 45.6996 48.0222 46.4329 48.6C45.4774 49.3778 44.4774 50 43.4329 50.4667C42.3885 50.9333 41.2996 51.1667 40.1663 51.1667C38.6774 51.1667 37.2441 50.7667 35.8663 49.9667C34.4885 49.1666 33.2552 48.1 32.1663 46.7667C31.0774 48.1 29.8441 49.1666 28.4663 49.9667C27.0885 50.7667 25.6552 51.1667 24.1663 51.1667C24.1885 51.1667 24.1829 51.1722 24.1496 51.1833C24.1163 51.1944 24.0996 51.1889 24.0996 51.1667C19.3218 47.8111 15.5996 44.7944 12.9329 42.1167C10.2663 39.4389 8.93294 37.2 8.93294 35.4C8.93294 34.3333 9.3885 33.6222 10.2996 33.2667C11.2107 32.9111 12.1441 32.7333 13.0996 32.7333C14.3663 32.7333 15.9163 32.9611 17.7496 33.4167C19.5829 33.8722 21.6441 34.5111 23.9329 35.3333L22.4663 26.1667C22.2885 25.1444 22.3274 24.2055 22.5829 23.35C22.8385 22.4944 23.3441 21.8222 24.0996 21.3333L31.3329 16.4667C30.9774 16.4222 30.4552 16.3333 29.7663 16.2C29.0774 16.0667 28.3552 15.9333 27.5996 15.8C26.8441 15.6667 26.1218 15.5222 25.4329 15.3667C24.7441 15.2111 24.2329 15.1 23.8996 15.0333L18.2663 18.8333C17.8218 19.1444 17.3441 19.2667 16.8329 19.2C16.3218 19.1333 15.9218 18.8667 15.6329 18.4C15.3441 17.9555 15.2441 17.4722 15.3329 16.95C15.4218 16.4278 15.6996 16.0222 16.1663 15.7333L22.3663 11.4667C22.5663 11.3333 22.7829 11.2389 23.0163 11.1833C23.2496 11.1278 23.4996 11.1111 23.7663 11.1333L37.4996 13.6667C37.9663 13.7778 38.4552 13.9944 38.9663 14.3167C39.4774 14.6389 39.8996 15.1 40.2329 15.7L42.5663 19.8333C43.5885 21.6333 44.9385 23.1444 46.6163 24.3667C48.2941 25.5889 50.1885 26.3778 52.2996 26.7333C52.8107 26.8222 53.2385 27.0722 53.5829 27.4833C53.9274 27.8944 54.0996 28.3555 54.0996 28.8667C54.0996 29.3778 53.9218 29.8111 53.5663 30.1667C53.2107 30.5222 52.7885 30.6555 52.2996 30.5667C49.4996 30.1222 46.9274 29.0667 44.5829 27.4C42.2385 25.7333 40.3329 23.6222 38.8663 21.0667L31.3663 26.1333ZM26.9996 29.3333L28.1663 37.1667C29.9663 38.0333 31.6663 38.9055 33.2663 39.7833C34.8663 40.6611 36.5329 41.6222 38.2663 42.6667V37.1667L26.9996 29.3333ZM45.4996 13.6667C44.1885 13.6667 43.0607 13.1944 42.1163 12.25C41.1718 11.3055 40.6996 10.1778 40.6996 8.86665C40.6996 7.55554 41.1718 6.42776 42.1163 5.48332C43.0607 4.53887 44.1885 4.06665 45.4996 4.06665C46.8107 4.06665 47.9385 4.53887 48.8829 5.48332C49.8274 6.42776 50.2996 7.55554 50.2996 8.86665C50.2996 10.1778 49.8274 11.3055 48.8829 12.25C47.9385 13.1944 46.8107 13.6667 45.4996 13.6667Z" fill="#EDF2F4"/>
</g>
</g>
</svg>
