<svg width="65" height="64" viewBox="0 0 65 64" fill="none" xmlns="http://www.w3.org/2000/svg">
<g id="9035126_telescope_icon 1">
<path id="Vector" d="M13.9448 31.25C13.6796 30.7908 13.243 30.4556 12.7308 30.3183C12.2186 30.1809 11.6729 30.2526 11.2135 30.5175L4.99976 34.1012C4.41807 34.4346 3.90994 34.8824 3.50605 35.4176C3.10216 35.9527 2.81087 36.5642 2.64976 37.215C2.33973 38.5055 2.54369 39.8659 3.21851 41.0087L3.76351 41.9512C4.42698 43.0985 5.51879 43.9354 6.79901 44.2781C8.07924 44.6208 9.44314 44.4412 10.591 43.7787L16.7998 40.2C17.0274 40.0688 17.227 39.8941 17.3871 39.6857C17.5472 39.4774 17.6647 39.2395 17.7328 38.9858C17.8009 38.732 17.8184 38.4673 17.7842 38.2068C17.75 37.9463 17.6648 37.6951 17.5335 37.4675L13.9448 31.25Z" fill="#EDF2F4"/>
<path id="Vector_2" d="M48.3552 55.1L36.5902 31.75C36.5616 31.693 36.5559 31.6271 36.5743 31.566C36.5926 31.5049 36.6337 31.4531 36.689 31.4213L37.7265 30.8225C37.954 30.6912 38.1535 30.5164 38.3135 30.308C38.4734 30.0996 38.5908 29.8618 38.6588 29.608C38.7268 29.3543 38.7442 29.0896 38.7099 28.8291C38.6756 28.5687 38.5903 28.3175 38.459 28.09L32.5177 17.7988C32.3865 17.5711 32.2118 17.3715 32.0035 17.2114C31.7951 17.0513 31.5573 16.9339 31.3035 16.8657C31.0497 16.7976 30.785 16.7801 30.5245 16.8143C30.264 16.8485 30.0128 16.9337 29.7852 17.065L18.9877 23.29C18.4177 23.6166 17.9182 24.053 17.518 24.5739C17.1178 25.0949 16.825 25.6901 16.6565 26.325C16.5418 26.7215 16.4842 27.1323 16.4852 27.545C16.4927 28.495 17.6352 30.3825 18.7502 32.33C19.949 34.4238 21.1552 36.565 22.0427 37.0988C22.6077 37.4388 23.6052 37.7113 24.444 37.7113H24.549L14.634 59.1613C14.5235 59.3997 14.4611 59.6576 14.4504 59.9202C14.4397 60.1828 14.4808 60.445 14.5714 60.6917C14.6621 60.9384 14.8005 61.1648 14.9787 61.358C15.1569 61.5511 15.3714 61.7073 15.61 61.8175C15.8486 61.9277 16.1065 61.9898 16.3692 62.0003C16.6318 62.0108 16.8939 61.9694 17.1405 61.8785C17.3871 61.7876 17.6133 61.6489 17.8063 61.4706C17.9993 61.2922 18.1553 61.0775 18.2652 60.8388L29.9752 35.5075C30.0614 35.32 30.2038 35.164 30.3827 35.0613L32.784 33.6763C32.8135 33.6594 32.8461 33.6487 32.8799 33.6449C32.9136 33.6411 32.9478 33.6442 32.9803 33.654C33.0128 33.6638 33.043 33.6802 33.069 33.7021C33.095 33.7239 33.1162 33.7509 33.1315 33.7813L44.7827 56.9063C45.0214 57.38 45.4385 57.7395 45.9423 57.9057C46.4461 58.0719 46.9952 58.0312 47.469 57.7925C47.9427 57.5538 48.3022 57.1367 48.4684 56.6329C48.6346 56.1292 48.5939 55.58 48.3552 55.1063V55.1Z" fill="#EDF2F4"/>
<path id="Vector_3" d="M61.776 14.4675L56.011 4.5C55.3457 3.35442 54.2537 2.519 52.9739 2.17652C51.6942 1.83404 50.3309 2.01237 49.1823 2.6725L37.5148 9.395C36.9446 9.72134 36.4449 10.1577 36.0448 10.6787C35.6446 11.1997 35.3518 11.795 35.1835 12.43C35.0179 12.9654 34.9638 13.5291 35.0248 14.0862C35.2423 15.6637 36.6498 17.8862 38.326 20.8225C40.0235 23.7887 41.9398 27.1325 42.9423 27.8562C43.7898 28.4553 44.802 28.7772 45.8398 28.7775C46.7141 28.7778 47.5729 28.5476 48.3298 28.11L59.9998 21.3837C60.5803 21.0511 61.0876 20.6046 61.4912 20.0711C61.8948 19.5375 62.1864 18.9278 62.3486 18.2787C62.6609 16.9822 62.4555 15.615 61.776 14.4675Z" fill="#EDF2F4"/>
</g>
</svg>
