<svg xmlns="http://www.w3.org/2000/svg" xmlnsXlink="http://www.w3.org/1999/xlink" version="1.1" x="0px" y="0px" viewBox="0 0 100 125" style="enable-background:new 0 0 100 100;" xmlSpace="preserve"><path d="M50,97.5c-1.6399651,0-2.96875-1.3287888-2.96875-2.96875V5.46875C47.03125,3.8287861,48.3600349,2.5,50,2.5  s2.96875,1.3287861,2.96875,2.96875v89.0625C52.96875,96.1712112,51.6399651,97.5,50,97.5z" fill="#550a0c"/><path d="M50,27.7991238c-0.7595825,0-1.519165-0.289917-2.098999-0.869751c-1.159668-1.1587029-1.159668-3.0392971,0-4.197998  l11.6169739-11.6169748c1.159668-1.159668,3.0383301-1.159668,4.197998,0c1.159668,1.1587019,1.159668,3.0392971,0,4.197998  L52.098999,26.9293728C51.519165,27.5092068,50.7595825,27.7991238,50,27.7991238z" fill="#550a0c"/><path d="M50,27.7991238c-0.7595825,0-1.519165-0.289917-2.098999-0.869751L36.2840271,15.312398  c-1.159668-1.1587009-1.159668-3.0392962,0-4.197998c1.159668-1.159668,3.0383301-1.159668,4.197998,0L52.098999,22.7313747  c1.159668,1.1587009,1.159668,3.0392952,0,4.197998C51.519165,27.5092068,50.7595825,27.7991238,50,27.7991238z" fill="#550a0c"/><path d="M61.6169739,89.7553482c-0.7595825,0-1.519165-0.289917-2.098999-0.869751L47.901001,77.2686234  c-1.159668-1.158699-1.159668-3.0392914,0-4.197998c1.159668-1.159668,3.0383301-1.159668,4.197998,0l11.6169739,11.6169739  c1.159668,1.1587067,1.159668,3.039299,0,4.197998C63.1361389,89.4654312,62.3765564,89.7553482,61.6169739,89.7553482z" fill="#550a0c"/><path d="M38.3830261,89.7553482c-0.7595825,0-1.519165-0.289917-2.098999-0.869751  c-1.159668-1.158699-1.159668-3.0392914,0-4.197998L47.901001,73.0706253c1.159668-1.159668,3.0383301-1.159668,4.197998,0  c1.159668,1.1587067,1.159668,3.039299,0,4.197998L40.4820251,88.8855972  C39.9021912,89.4654312,39.1426086,89.7553482,38.3830261,89.7553482z" fill="#550a0c"/><path d="M88.5618591,75.2353439c-0.5034866,0-1.0137405-0.1285324-1.4814758-0.3991241l-77.1295166-44.53125  C8.5312386,29.4854736,8.044178,27.6696262,8.8646431,26.25s2.6353455-1.9066868,4.0549726-1.0862217l77.1295166,44.53125  c1.4196243,0.8194962,1.9066849,2.6353455,1.0862198,4.0549698C90.5854797,74.702858,89.5881653,75.2353439,88.5618591,75.2353439z" fill="#550a0c"/><path d="M28.2001743,40.3844185c-1.3104248,0-2.5106812-0.8745804-2.8653469-2.2014351l-4.2521152-15.8690891  c-0.4242458-1.5839138,0.5150852-3.2113152,2.098999-3.6355591c1.5829468-0.428112,3.2122803,0.5150852,3.6355591,2.098999  l4.2521152,15.8690891c0.4242458,1.5839119-0.5150852,3.2113152-2.098999,3.6355591  C28.7133274,40.3515625,28.4543343,40.3844185,28.2001743,40.3844185z" fill="#550a0c"/><path d="M12.3320503,44.6365356c-1.3104248,0-2.5106812-0.8745842-2.865346-2.2014351  c-0.4242449-1.5839157,0.5150862-3.2113152,2.098999-3.6355591l15.8681231-4.2521172  c1.5848808-0.428112,3.2122803,0.5150871,3.6355591,2.098999c0.4242458,1.5839119-0.5150852,3.2113152-2.098999,3.6355591  l-15.8681231,4.2521172C12.8452034,44.6036797,12.5862112,44.6365356,12.3320503,44.6365356z" fill="#550a0c"/><path d="M71.7959595,65.5550156c-1.3104248,0-2.5106812-0.874588-2.8653488-2.2014389  c-0.4242401-1.5839119,0.5150909-3.2113152,2.098999-3.6355591l15.8681259-4.2521172  c1.5839157-0.4271431,3.2122803,0.5150871,3.6355591,2.098999c0.4242477,1.5839157-0.5150833,3.2113152-2.098999,3.6355591  l-15.8681259,4.2521172C72.3091125,65.5221558,72.0501175,65.5550156,71.7959595,65.5550156z" fill="#550a0c"/><path d="M76.0480728,81.4241028c-1.3104248,0-2.5106812-0.8745804-2.8653412-2.2014389l-4.252121-15.8690872  c-0.4242401-1.5839119,0.5150909-3.2113152,2.098999-3.6355591c1.5829468-0.4290771,3.2122803,0.5150871,3.6355591,2.098999  l4.252121,15.8690872c0.4242401,1.5839157-0.5150909,3.211319-2.098999,3.6355591  C76.5612259,81.391243,76.3022385,81.4241028,76.0480728,81.4241028z" fill="#550a0c"/><path d="M11.4381399,75.2353439c-1.0263062,0-2.0236206-0.532486-2.5734968-1.4853439  c-0.8204651-1.4196243-0.3334045-3.2354736,1.0862226-4.0549698l77.1295166-44.53125  c1.4215622-0.8204651,3.2354736-0.3334045,4.0549698,1.0862217c0.8204651,1.4196262,0.3334045,3.2354736-1.0862198,4.0549717  l-77.1295166,44.53125C12.4518833,75.1068115,11.9416294,75.2353439,11.4381399,75.2353439z" fill="#550a0c"/><path d="M28.2040405,65.5550156c-0.2541618,0-0.5131531-0.0328598-0.7702141-0.1024399l-15.8681231-4.2521172  c-1.5839128-0.4242439-2.5232439-2.0516434-2.098999-3.6355591c0.4232788-1.5839119,2.0526123-2.5261421,3.6355591-2.098999  l15.8681231,4.2521172c1.5839138,0.4242439,2.5232449,2.0516472,2.098999,3.6355591  C30.7147217,64.6804276,29.5144653,65.5550156,28.2040405,65.5550156z" fill="#550a0c"/><path d="M23.9519234,81.4241028c-0.2541599,0-0.5131531-0.0328598-0.7702122-0.1024399  c-1.5839138-0.4242401-2.5232449-2.0516434-2.098999-3.6355591l4.2521152-15.8690872  c0.4232788-1.5839119,2.0535793-2.5280762,3.6355591-2.098999c1.5839138,0.4242439,2.5232449,2.0516472,2.098999,3.6355591  l-4.2521152,15.8690872C26.4626045,80.5495224,25.2623482,81.4241028,23.9519234,81.4241028z" fill="#550a0c"/><path d="M71.7998276,40.3844185c-0.2541656,0-0.5131531-0.032856-0.7702179-0.1024361  c-1.5839081-0.4242439-2.5232391-2.0516472-2.098999-3.6355591l4.252121-15.8690891  c0.4232788-1.5839138,2.0535736-2.5271111,3.6355591-2.098999c1.5839081,0.4242439,2.5232391,2.0516453,2.098999,3.6355591  l-4.252121,15.8690891C74.3105087,39.5098381,73.1102524,40.3844185,71.7998276,40.3844185z" fill="#550a0c"/><path d="M87.6679459,44.6365356c-0.254158,0-0.5131531-0.032856-0.7702103-0.1024361l-15.8681259-4.2521172  c-1.5839081-0.4242439-2.5232391-2.0516472-2.098999-3.6355591c0.4232788-1.5839119,2.0545502-2.5271111,3.6355591-2.098999  l15.8681259,4.2521172c1.5839157,0.4242439,2.5232468,2.0516434,2.098999,3.6355591  C90.178627,43.7619514,88.9783707,44.6365356,87.6679459,44.6365356z" fill="#550a0c"/></svg>