<?xml version="1.0" encoding="UTF-8"?>
<svg version="1.1" xmlns="http://www.w3.org/2000/svg" width="200" height="200" fill="#550a0c">
<path d="M0 0 C10.58164183 8.09384842 20.32518365 17.83023334 27.36328125 29.16796875 C28.67039062 28.38873047 28.67039062 28.38873047 30.00390625 27.59375 C54.71310826 13.0449495 84.43705668 5.75708487 112.92578125 12.85546875 C115.44400033 13.54684106 117.88407559 14.33425357 120.36328125 15.16796875 C121.46671875 15.51859375 122.57015625 15.86921875 123.70703125 16.23046875 C149.67566177 25.3068833 170.04599992 43.73627896 182.36328125 68.16796875 C182.86021484 69.56595703 182.86021484 69.56595703 183.3671875 70.9921875 C185.42511291 76.61488746 187.87626408 78.76826065 193.16992188 81.24438477 C194.68092057 81.90487435 196.1953129 82.55765113 197.71289062 83.20288086 C204.85608704 86.24668301 210.40122076 90.146378 216.36328125 95.16796875 C217.22308594 95.87695312 218.08289063 96.5859375 218.96875 97.31640625 C234.57788851 110.72332522 245.36101595 127.58557821 251.36328125 147.16796875 C251.70359375 148.26496094 252.04390625 149.36195313 252.39453125 150.4921875 C256.93260746 168.5814635 256.61274094 190.51984666 250.36328125 208.16796875 C250.11126953 208.8837207 249.85925781 209.59947266 249.59960938 210.33691406 C239.95088291 236.93454253 220.64932288 259.18379094 195.05078125 271.48046875 C185.00743888 276.11674117 174.31924223 279.54928089 163.36328125 281.16796875 C163.13253906 282.24433594 162.90179688 283.32070313 162.6640625 284.4296875 C156.24274685 313.56535942 141.89077557 338.3547617 116.48828125 354.91796875 C92.41265996 370.02731632 62.61228545 375.94342516 34.61328125 369.60546875 C15.6541381 364.83070299 -0.6353446 355.81337576 -14.63671875 342.16796875 C-15.41789063 341.43707031 -16.1990625 340.70617187 -17.00390625 339.953125 C-22.34658672 334.83530482 -26.61110938 329.36818383 -30.63671875 323.16796875 C-31.47332031 323.67585938 -32.30992187 324.18375 -33.171875 324.70703125 C-41.68199224 329.78067974 -50.23588345 333.98813382 -59.63671875 337.16796875 C-60.8484375 337.58304687 -62.06015625 337.998125 -63.30859375 338.42578125 C-82.15186619 344.14214424 -105.02922238 343.42535691 -123.63671875 337.16796875 C-124.74015625 336.81734375 -125.84359375 336.46671875 -126.98046875 336.10546875 C-153.9978221 326.6625103 -173.88025072 307.48133752 -186.63671875 282.16796875 C-186.92699951 281.46808838 -187.21728027 280.76820801 -187.51635742 280.04711914 C-189.94271627 274.39433759 -192.60491535 272.44949828 -198.19921875 270.10546875 C-199.6464537 269.43643467 -201.09176812 268.76323086 -202.53515625 268.0859375 C-203.23866211 267.76157715 -203.94216797 267.4372168 -204.66699219 267.10302734 C-226.66360193 256.66090844 -243.97190657 234.66557492 -252.24609375 212.16796875 C-259.79764031 190.6991091 -261.07069779 165.89273358 -253.63671875 144.16796875 C-253.42241211 143.52907715 -253.20810547 142.89018555 -252.98730469 142.23193359 C-244.1454749 116.42074052 -224.83291154 94.16827574 -200.45678711 81.87988281 C-189.75700516 76.74006769 -178.40344597 72.90644322 -166.63671875 71.16796875 C-166.40597656 70.09160156 -166.17523438 69.01523438 -165.9375 67.90625 C-159.51618435 38.77057808 -145.16421307 13.9811758 -119.76171875 -2.58203125 C-82.8282762 -25.7606738 -35.78193265 -24.86181691 0 0 Z M-74.51171875 108.29296875 C-76.20156126 112.61145517 -76.29632858 116.59467395 -75.63671875 121.16796875 C-73.47373038 125.57405618 -71.23991396 128.36671845 -66.63671875 130.16796875 C-61.59346491 130.85222932 -57.80594991 130.74195495 -53.19921875 128.48046875 C-49.84015863 125.44912181 -47.94316244 123.42657227 -47.3203125 118.8359375 C-47.05458223 113.11845066 -47.66824723 109.56546422 -51.63671875 105.16796875 C-55.47385071 101.78226408 -59.27073337 101.65505703 -64.19921875 101.81640625 C-68.86198021 102.48891992 -71.48862167 104.86679206 -74.51171875 108.29296875 Z M75.48828125 108.29296875 C73.79843874 112.61145517 73.70367142 116.59467395 74.36328125 121.16796875 C76.52626962 125.57405618 78.76008604 128.36671845 83.36328125 130.16796875 C88.40653509 130.85222932 92.19405009 130.74195495 96.80078125 128.48046875 C100.15984137 125.44912181 102.05683756 123.42657227 102.6796875 118.8359375 C102.94541777 113.11845066 102.33175277 109.56546422 98.36328125 105.16796875 C94.52614929 101.78226408 90.72926663 101.65505703 85.80078125 101.81640625 C81.13801979 102.48891992 78.51137833 104.86679206 75.48828125 108.29296875 Z M-163.63671875 167.16796875 C-166.39462805 171.59172931 -166.28394112 176.11004575 -165.63671875 181.16796875 C-163.47373038 185.57405618 -161.23991396 188.36671845 -156.63671875 190.16796875 C-151.59346491 190.85222932 -147.80594991 190.74195495 -143.19921875 188.48046875 C-139.84015863 185.44912181 -137.94316244 183.42657227 -137.3203125 178.8359375 C-137.05458223 173.11845066 -137.66824723 169.56546422 -141.63671875 165.16796875 C-145.43588541 161.81576287 -149.2374084 161.60007889 -154.12890625 161.74609375 C-158.09495692 162.41327984 -160.9206807 164.23588222 -163.63671875 167.16796875 Z M-13.63671875 167.16796875 C-16.39462805 171.59172931 -16.28394112 176.11004575 -15.63671875 181.16796875 C-13.47373038 185.57405618 -11.23991396 188.36671845 -6.63671875 190.16796875 C-1.59346491 190.85222932 2.19405009 190.74195495 6.80078125 188.48046875 C10.15984137 185.44912181 12.05683756 183.42657227 12.6796875 178.8359375 C12.94541777 173.11845066 12.33175277 169.56546422 8.36328125 165.16796875 C4.56411459 161.81576287 0.7625916 161.60007889 -4.12890625 161.74609375 C-8.09495692 162.41327984 -10.9206807 164.23588222 -13.63671875 167.16796875 Z M136.36328125 167.16796875 C133.60537195 171.59172931 133.71605888 176.11004575 134.36328125 181.16796875 C136.52626962 185.57405618 138.76008604 188.36671845 143.36328125 190.16796875 C148.40653509 190.85222932 152.19405009 190.74195495 156.80078125 188.48046875 C160.15984137 185.44912181 162.05683756 183.42657227 162.6796875 178.8359375 C162.94541777 173.11845066 162.33175277 169.56546422 158.36328125 165.16796875 C154.56411459 161.81576287 150.7625916 161.60007889 145.87109375 161.74609375 C141.90504308 162.41327984 139.0793193 164.23588222 136.36328125 167.16796875 Z M-103.63671875 227.16796875 C-106.39462805 231.59172931 -106.28394112 236.11004575 -105.63671875 241.16796875 C-103.47373038 245.57405618 -101.23991396 248.36671845 -96.63671875 250.16796875 C-91.59346491 250.85222932 -87.80594991 250.74195495 -83.19921875 248.48046875 C-79.84015863 245.44912181 -77.94316244 243.42657227 -77.3203125 238.8359375 C-77.05458223 233.11845066 -77.66824723 229.56546422 -81.63671875 225.16796875 C-85.43588541 221.81576287 -89.2374084 221.60007889 -94.12890625 221.74609375 C-98.09495692 222.41327984 -100.9206807 224.23588222 -103.63671875 227.16796875 Z M46.36328125 227.16796875 C43.60537195 231.59172931 43.71605888 236.11004575 44.36328125 241.16796875 C46.52626962 245.57405618 48.76008604 248.36671845 53.36328125 250.16796875 C58.40653509 250.85222932 62.19405009 250.74195495 66.80078125 248.48046875 C70.15984137 245.44912181 72.05683756 243.42657227 72.6796875 238.8359375 C72.94541777 233.11845066 72.33175277 229.56546422 68.36328125 225.16796875 C64.56411459 221.81576287 60.7625916 221.60007889 55.87109375 221.74609375 C51.90504308 222.41327984 49.0793193 224.23588222 46.36328125 227.16796875 Z " fill="#000000" transform="translate(257.63671875,79.83203125)"/>
<path d="M0 0 C9.47463573 6.94911196 16.95161439 16.64389635 19.421875 28.35546875 C20.71840454 42.36291128 19.58515159 54.65161646 11.046875 66.29296875 C3.79710687 74.80019131 -6.14121373 82.4819878 -17.66186523 83.54833984 C-32.20672027 84.0750382 -44.10662342 82.99872375 -55.65625 73.15625 C-63.78698313 65.53781916 -70.43729869 55.48683287 -70.8515625 44.046875 C-71.2686331 29.19654597 -69.07220246 17.55522171 -58.578125 6.35546875 C-43.56002846 -9.51550735 -18.09084176 -11.53976422 0 0 Z " fill="#000000" transform="translate(70.578125,428.64453125)"/>
<path d="M0 0 C9.47463573 6.94911196 16.95161439 16.64389635 19.421875 28.35546875 C20.71840454 42.36291128 19.58515159 54.65161646 11.046875 66.29296875 C3.79710687 74.80019131 -6.14121373 82.4819878 -17.66186523 83.54833984 C-32.20672027 84.0750382 -44.10662342 82.99872375 -55.65625 73.15625 C-63.78698313 65.53781916 -70.43729869 55.48683287 -70.8515625 44.046875 C-71.2686331 29.19654597 -69.07220246 17.55522171 -58.578125 6.35546875 C-43.56002846 -9.51550735 -18.09084176 -11.53976422 0 0 Z " fill="#000000" transform="translate(492.578125,6.64453125)"/>
<path d="M0 0 C4.61581142 2.18643699 6.72864085 4.49599804 9 9 C9.82885269 14.54808604 9.7240695 19.47140883 7.3125 24.5625 C4.21064779 27.8320199 1.61649202 29.75850523 -2.90234375 30.43359375 C-9.05071801 30.44150672 -13.31314296 30.4465054 -18 26 C-21.88937897 20.55860924 -21.79042609 15.48149391 -21 9 C-16.63929544 -0.20593186 -9.3488659 -1.1401056 0 0 Z " fill="#000000" transform="translate(202,451)"/>
<path d="M0 0 C4.61581142 2.18643699 6.72864085 4.49599804 9 9 C9.82885269 14.54808604 9.7240695 19.47140883 7.3125 24.5625 C4.21064779 27.8320199 1.61649202 29.75850523 -2.90234375 30.43359375 C-9.05071801 30.44150672 -13.31314296 30.4465054 -18 26 C-21.88937897 20.55860924 -21.79042609 15.48149391 -21 9 C-16.63929544 -0.20593186 -9.3488659 -1.1401056 0 0 Z " fill="#000000" transform="translate(472,391)"/>
<path d="M0 0 C4.61581142 2.18643699 6.72864085 4.49599804 9 9 C9.82885269 14.54808604 9.7240695 19.47140883 7.3125 24.5625 C4.21064779 27.8320199 1.61649202 29.75850523 -2.90234375 30.43359375 C-9.05071801 30.44150672 -13.31314296 30.4465054 -18 26 C-21.88937897 20.55860924 -21.79042609 15.48149391 -21 9 C-16.63929544 -0.20593186 -9.3488659 -1.1401056 0 0 Z " fill="#000000" transform="translate(52,91)"/>
<path d="M0 0 C4.61581142 2.18643699 6.72864085 4.49599804 9 9 C9.82885269 14.54808604 9.7240695 19.47140883 7.3125 24.5625 C4.21064779 27.8320199 1.61649202 29.75850523 -2.90234375 30.43359375 C-9.05071801 30.44150672 -13.31314296 30.4465054 -18 26 C-21.88937897 20.55860924 -21.79042609 15.48149391 -21 9 C-16.63929544 -0.20593186 -9.3488659 -1.1401056 0 0 Z " fill="#000000" transform="translate(292,31)"/>
</svg>
