<svg xmlns="http://www.w3.org/2000/svg" xmlnsXlink="http://www.w3.org/1999/xlink" version="1.1" x="0px" y="0px" viewBox="0 0 50 62.5" style="enable-background:new 0 0 50 50;" xmlSpace="preserve"><g><path d="M38.9,38.4C38.9,38.4,38.9,38.4,38.9,38.4c-2.8,1.9-6.7,0-7-3.3c-0.4-0.1-0.8-0.3-1.2-0.5c-2.4,3.4-7.9,1.7-8.2-2.3   c-0.3-0.1-0.7-0.2-1-0.3c-0.2,0.5-0.4,0.9-0.7,1.3c1.5,1.9,0.6,5-1.9,5.6c-2.4,3.5-7.9,1.8-8.2-2.2c-0.1,0-0.2,0-0.3-0.1   c0.1,0.3,0.2,0.6,0.3,1c-4.6,0.3-4.9,7-0.3,7.7c0.8,0.1,1.6,0,2.2-0.3c0.4,4.5,6.5,5.6,8.5,1.5c1.1,0.9,2.7,1,3.9,0.2   c1,1.2,2.6,1.5,3.9,0.8c1.5,1.5,4.1,1.1,5-0.8c0.7,0.7,1.6,1.1,2.6,1.3c2.7,0.4,5.2-1.4,5.6-4.1C42.8,41.4,41.3,39.1,38.9,38.4z" fill="#550a0c"/><path d="M13.1,19.7c1.8,2.4,5.4,0.8,5.4-1.8c1.1,0.4,2.3,0.2,3.4-0.3c1.2,2.5,4.5,2.6,6,0.7c0.1,0.1,0.2,0.1,0.3,0.2   c1,2.6,5.1,3.1,6.4,0.2c0.8,0.5,1.9,0.7,2.9,0.4c0.9,1.3,2.6,1.8,4,1.1c2.6-1.2,2.6-4.8,0.2-6c1.7-1.3,1.5-4.2-0.5-5.2   c2.5-2.8-0.3-7-3.8-5.9c-0.8-3.1-5.9-2.8-6.4,0.7c-0.8,0.1-1.5,0.5-1.9,1c-1.4-1.8-4.1-2.5-6.2-0.7c-1.3-2.4-4.6-2.7-6.2-0.7   C15.4,0.7,11.4,0.5,9.9,3c-1.1,1.6-0.8,4,0.9,5.3c-0.3,1.2-0.1,2.4,0.5,3.4C7.1,13.6,8.6,20,13.1,19.7z" fill="#550a0c"/><path d="M25.4,19.6L25.4,19.6C25.4,19.6,25.4,19.6,25.4,19.6C25.4,19.6,25.4,19.6,25.4,19.6z" fill="#550a0c"/><path d="M44.1,23.7c0.6-1.5,0.2-2.8-0.6-3.7c-1.6,1.9-4.6,2.1-6.4,0.2c-0.6,0.1-1.4,0-2.1-0.2c-1.8,2.4-5.6,2.2-7.3-0.2   c-1.5,1.1-3.7,1.1-5.3,0c-0.7,0.1-1.3,0.5-1.6,0.9c-1.1-0.3-2.3,0.1-2.8,0.6c0-0.1-0.1-0.1-0.2-0.2c-1.5,1.1-3.7,1.1-5.1-0.2   c-0.9,0.8-1.4,1.9-1.2,3.3c-2.2-0.2-4,2-3.3,4.1c-0.7-0.1-1.5,0.1-2.1,0.5c-3.3,2.2-0.7,7.3,3,5.9c0.7,0.8,1.7,1.2,2.6,1.2   c-0.6,3.8,4.7,5.5,6.5,2.2c2.3-0.2,3.1-3.4,1.1-4.7c0.8-0.7,1.2-1.6,1.3-2.5c0.3,0,0.4,0,0.7,0c0.6,0.4,1.4,0.7,2.1,0.7   c-0.6,3.8,4.8,5.5,6.5,2.2c0.3,0,0.3,0,0.7-0.2c0.6,0.5,1.4,0.7,2.2,0.8c-0.6,3.7,4.7,5.6,6.5,2.2c2.3-0.2,3.1-3.4,1.1-4.7   c0.8-0.7,1.2-1.6,1.3-2.5c1.1,0.1,2.4-0.4,3-1.6c0,0,0,0,0,0c0,0,0,0,0,0l0,0C45.6,26.3,45.3,24.7,44.1,23.7z" fill="#550a0c"/></g></svg>