<svg xmlns="http://www.w3.org/2000/svg" xmlns:xlink="http://www.w3.org/1999/xlink" version="1.1" x="0px" y="0px" viewBox="0 0 50 62.5" enable-background="new 0 0 50 50" xml:space="preserve"><g><path d="M10.432,25.9h-0.168c-3.476,0-6.422-1.684-8.085-4.62c-0.722-1.275-1.161-2.749-1.273-4.263   c-0.112-1.509,0.11-3.05,0.643-4.451c1.11-2.934,3.402-5.053,6.493-6.028C8.771,4.84,9.925,3.537,11.408,2.74   c1.698-0.908,3.748-1.116,6.012-0.597c0.961-0.72,2.008-1.268,3.117-1.632c1.873-0.617,3.877-0.676,5.76-0.174   c1.895,0.507,3.614,1.558,4.978,3.04c0.872,0.948,1.587,2.056,2.125,3.295c0.678,0.038,1.353,0.145,2.013,0.321   c1.893,0.505,3.614,1.555,4.978,3.038c0.875,0.953,1.592,2.063,2.13,3.306c2.767,1.065,4.914,3.177,5.943,5.877   c0.56,1.463,0.768,3.054,0.602,4.601c-0.177,1.605-0.755,3.14-1.673,4.435c-1.971,2.775-5.306,4.304-9.392,4.304h-18.62   c-3.477,0-6.423-1.684-8.086-4.621C10.936,27.298,10.646,26.613,10.432,25.9 M15.064,4.703c-0.865,0-1.643,0.183-2.313,0.542   c-1.054,0.564-1.826,1.549-2.293,2.926C10.3,8.629,9.923,8.976,9.453,9.092c-2.527,0.626-4.39,2.218-5.249,4.481   c-0.386,1.018-0.545,2.136-0.464,3.236c0.081,1.097,0.395,2.16,0.912,3.072c1.116,1.975,3.009,3.094,5.343,3.173   c-0.018-1.308,0.211-2.624,0.668-3.834c1.113-2.934,3.404-5.052,6.495-6.027c0.729-1.698,1.883-3.003,3.367-3.799   c1.698-0.908,3.744-1.114,6.011-0.597c0.961-0.718,2.009-1.266,3.119-1.632c0.239-0.078,0.48-0.148,0.722-0.209   c-0.339-0.608-0.739-1.161-1.194-1.655c-0.998-1.085-2.25-1.851-3.62-2.219c-1.347-0.358-2.79-0.315-4.138,0.128   c-0.989,0.324-1.915,0.853-2.754,1.568c-0.359,0.307-0.851,0.417-1.301,0.287l-0.283-0.078C16.382,4.799,15.695,4.703,15.064,4.703   z M6.792,39.333c-0.336,0-0.664-0.175-0.845-0.488c-0.269-0.466-0.11-1.063,0.356-1.333l0.184-0.106L6.304,37.3   c-0.468-0.269-0.626-0.867-0.358-1.332c0.267-0.466,0.865-0.625,1.333-0.358l0.185,0.107v-0.214c0-0.539,0.436-0.975,0.975-0.975   c0.539,0,0.975,0.436,0.975,0.975v0.214l0.185-0.107c0.47-0.266,1.063-0.107,1.33,0.358c0.269,0.465,0.111,1.063-0.356,1.332   l-0.183,0.106l0.184,0.106c0.466,0.269,0.625,0.867,0.356,1.333c-0.181,0.312-0.509,0.488-0.845,0.488   c-0.165,0-0.333-0.042-0.488-0.13l-0.184-0.106v0.212c0,0.538-0.436,0.975-0.975,0.975c-0.539,0-0.975-0.437-0.975-0.975v-0.212   L7.28,39.203C7.124,39.291,6.957,39.333,6.792,39.333z M19.658,45.841c-0.336,0-0.664-0.175-0.845-0.487   c-0.27-0.466-0.111-1.063,0.355-1.333l0.184-0.106l-0.183-0.106c-0.466-0.269-0.625-0.867-0.355-1.332   c0.267-0.466,0.862-0.627,1.33-0.358l0.186,0.107v-0.214c0-0.538,0.437-0.974,0.975-0.974c0.538,0,0.974,0.436,0.974,0.974v0.214   l0.185-0.107c0.468-0.267,1.064-0.108,1.331,0.358c0.269,0.465,0.11,1.063-0.356,1.332l-0.183,0.106l0.184,0.106   c0.466,0.269,0.625,0.867,0.356,1.333c-0.181,0.312-0.509,0.487-0.845,0.487c-0.165,0-0.332-0.042-0.488-0.129l-0.184-0.107v0.213   c0,0.538-0.436,0.975-0.974,0.975c-0.539,0-0.975-0.437-0.975-0.975v-0.213l-0.184,0.107C19.99,45.799,19.823,45.841,19.658,45.841   z M11.081,45.841c-0.336,0-0.664-0.175-0.845-0.487c-0.269-0.466-0.11-1.063,0.356-1.333l0.184-0.106l-0.183-0.106   c-0.466-0.269-0.625-0.867-0.355-1.332c0.267-0.466,0.863-0.627,1.33-0.358l0.185,0.107v-0.214c0-0.538,0.436-0.974,0.975-0.974   c0.539,0,0.975,0.436,0.975,0.974v0.214l0.185-0.107c0.47-0.267,1.063-0.108,1.332,0.358c0.27,0.465,0.11,1.063-0.358,1.332   l-0.183,0.106l0.184,0.106c0.466,0.269,0.625,0.867,0.356,1.333c-0.181,0.312-0.509,0.487-0.845,0.487   c-0.165,0-0.332-0.042-0.488-0.129l-0.184-0.107v0.213c0,0.538-0.436,0.975-0.975,0.975c-0.539,0-0.975-0.437-0.975-0.975v-0.213   l-0.184,0.107C11.413,45.799,11.246,45.841,11.081,45.841z M23.946,39.333c-0.336,0-0.664-0.175-0.845-0.488   c-0.269-0.466-0.11-1.063,0.356-1.333l0.184-0.106L23.458,37.3c-0.466-0.269-0.625-0.867-0.355-1.332   c0.267-0.466,0.862-0.625,1.33-0.358l0.185,0.107v-0.214c0-0.539,0.437-0.975,0.975-0.975c0.539,0,0.975,0.436,0.975,0.975v0.214   l0.185-0.107c0.46-0.267,1.062-0.111,1.33,0.358c0.27,0.465,0.111,1.063-0.355,1.332l-0.183,0.106l0.184,0.106   c0.466,0.269,0.625,0.867,0.358,1.333c-0.181,0.312-0.508,0.488-0.845,0.488c-0.167,0-0.334-0.042-0.487-0.13l-0.186-0.108v0.214   c0,0.538-0.436,0.975-0.975,0.975c-0.538,0-0.975-0.437-0.975-0.975v-0.212l-0.184,0.106   C24.278,39.291,24.111,39.333,23.946,39.333z M17.016,40.283c-0.539,0-0.975-0.437-0.975-0.975v-0.212l-0.184,0.106   c-0.156,0.088-0.323,0.13-0.488,0.13c-0.336,0-0.664-0.175-0.845-0.488c-0.269-0.466-0.11-1.063,0.356-1.333l0.184-0.106   L14.881,37.3c-0.467-0.269-0.627-0.867-0.358-1.332c0.27-0.466,0.863-0.625,1.333-0.358l0.185,0.107v-0.214   c0-0.539,0.436-0.975,0.975-0.975c0.538,0,0.975,0.436,0.975,0.975v0.214l0.185-0.107c0.47-0.266,1.065-0.107,1.332,0.358   c0.269,0.465,0.11,1.063-0.358,1.332l-0.183,0.106l0.184,0.106c0.466,0.269,0.625,0.867,0.356,1.333   c-0.181,0.312-0.509,0.488-0.845,0.488c-0.165,0-0.332-0.042-0.488-0.13l-0.184-0.106v0.212   C17.991,39.847,17.554,40.283,17.016,40.283z M41.099,50c-1.503,0-2.881-0.886-3.512-2.256c-0.291-0.629-0.016-1.374,0.614-1.662   c0.625-0.289,1.373-0.018,1.662,0.613c0.224,0.486,0.71,0.8,1.238,0.8h0.002c0.362,0,0.702-0.143,0.961-0.401   c0.259-0.259,0.401-0.601,0.401-0.961c0-0.739-0.623-1.362-1.362-1.362l-13.12-0.002c-0.692,0-1.254-0.56-1.254-1.252   c0-0.692,0.562-1.254,1.254-1.254h13.12c2.135,0,3.87,1.735,3.87,3.869c0,1.03-0.403,1.999-1.136,2.732   C43.106,49.597,42.133,50,41.105,50h-0.002H41.099z M31.273,40.989c-0.694,0-1.254-0.56-1.254-1.254   c0-0.691,0.56-1.251,1.254-1.251l8.994-0.002c0.6,0,1.107-0.507,1.107-1.105c0-0.599-0.507-1.104-1.107-1.104   c-0.428,0-0.823,0.253-1.006,0.648c-0.289,0.631-1.038,0.906-1.661,0.615c-0.631-0.289-0.904-1.034-0.615-1.663   c0.59-1.281,1.877-2.109,3.282-2.109c1.993,0,3.612,1.62,3.612,3.612c0,1.991-1.62,3.61-3.612,3.61L31.273,40.989z M24.18,11.356   c-0.865,0-1.643,0.183-2.313,0.543c-1.053,0.564-1.826,1.549-2.293,2.926c-0.157,0.458-0.534,0.803-1.004,0.919   c-2.528,0.627-4.391,2.219-5.249,4.481c-0.386,1.018-0.544,2.138-0.466,3.239c0.08,1.095,0.397,2.156,0.914,3.072   c1.16,2.048,3.154,3.176,5.613,3.176h18.62c4.025,0,6.067-1.689,7.073-3.105c0.641-0.904,1.043-1.975,1.167-3.097   c0.118-1.101-0.031-2.237-0.43-3.282c-0.812-2.124-2.512-3.691-4.795-4.41c-0.417-0.132-0.749-0.448-0.902-0.859   c-0.431-1.154-1.042-2.166-1.815-3.005c-0.998-1.085-2.25-1.851-3.619-2.217c-1.352-0.359-2.787-0.314-4.139,0.126   c-0.989,0.326-1.914,0.853-2.754,1.568c-0.358,0.307-0.841,0.417-1.303,0.287l-0.283-0.078   C25.499,11.453,24.813,11.356,24.18,11.356z"/></g><text x="0" y="65" fill="#000000" font-size="5px" font-weight="bold" font-family="'Helvetica Neue', Helvetica, Arial-Unicode, Arial, Sans-serif">Created by Georgiana Ionescu</text><text x="0" y="70" fill="#000000" font-size="5px" font-weight="bold" font-family="'Helvetica Neue', Helvetica, Arial-Unicode, Arial, Sans-serif">from the Noun Project</text></svg>