<?xml version="1.0" encoding="UTF-8"?>
<svg version="1.1" xmlns="http://www.w3.org/2000/svg" width="2000" height="2000" fill="#550a0c">
<path d="M0 0 C0.6755896 0.00087616 1.3511792 0.00175232 2.04724121 0.00265503 C33.0576929 0.13459691 60.04786971 10.86569684 83.9375 30.375 C84.8140625 31.055625 85.690625 31.73625 86.59375 32.4375 C88.72809147 34.20188895 90.46754289 35.95274307 92.25 38.0625 C94.09101177 40.23027143 95.93112723 42.36824333 97.8828125 44.4375 C103.5742234 50.50833829 107.87934261 57.13081586 111.9375 64.375 C112.44845215 65.27798828 112.44845215 65.27798828 112.96972656 66.19921875 C118.719429 76.51947486 125.9375 90.33335357 125.9375 102.375 C126.618125 102.49875 127.29875 102.6225 128 102.75 C137.48834755 104.76879735 145.51137972 108.72610605 153.9375 113.375 C154.93007813 113.9215625 155.92265625 114.468125 156.9453125 115.03125 C180.47739647 129.0270084 197.34196181 153.28123399 204.3125 179.5 C210.50507531 204.10875581 207.71710978 229.23425352 197.9375 252.375 C197.50824219 253.40238281 197.07898438 254.42976562 196.63671875 255.48828125 C185.54112495 279.67602112 164.24958728 298.20957486 139.9375 308.375 C121.14111519 315.33883135 102.74451689 316.53407942 82.88671875 316.54296875 C81.17568434 316.5461908 79.4646502 316.54955554 77.75361633 316.55305481 C74.19275269 316.55899773 70.63191316 316.5608994 67.07104492 316.56030273 C62.52423432 316.56020062 57.97757814 316.57392506 53.43080425 316.59107494 C49.9073669 316.60221886 46.38396686 316.60422131 42.86051369 316.60369301 C41.18409499 316.60486672 39.50767513 316.60925403 37.83127403 316.61702538 C35.48725973 316.6268875 33.14358093 316.62392447 30.79956055 316.61791992 C30.11938873 316.62353943 29.43921692 316.62915894 28.73843384 316.63494873 C21.22951235 316.5863822 14.90529803 315.12211207 8.9375 310.375 C4.9086359 306.234223 2.9375 301.99801678 2.9375 296.13671875 C3.55422104 288.49194752 6.12395884 283.72413646 11.828125 278.671875 C17.34431519 275.28043955 23.19761489 275.08574937 29.48046875 275.11962891 C30.7187014 275.11419823 30.7187014 275.11419823 31.98194885 275.10865784 C33.76501363 275.10179492 35.54809928 275.09925254 37.33117676 275.10060501 C40.16721544 275.10157697 43.00288197 275.0885462 45.83886719 275.07162476 C53.8992216 275.02557557 61.95953797 275.00078811 70.02001953 274.99414062 C74.96254485 274.9890835 79.90468299 274.96461904 84.84707642 274.92881393 C86.71584736 274.91910867 88.58467222 274.91663246 90.45346069 274.92198563 C110.88463195 274.97773419 129.59694677 271.18056416 144.87817383 256.56201172 C158.29881203 243.18921487 166.23166714 226.32714186 166.375 207.25 C166.01253377 188.78659676 159.10211609 171.47732295 145.9375 158.375 C133.55723228 147.53802592 120.59701782 143.5232222 104.96875 139.63671875 C99.56671298 138.18044672 95.81827714 136.62537497 91.9375 132.375 C88.61730056 126.4193352 87.15591577 120.41793629 86.0625 113.75 C81.90041101 91.23678755 70.37429872 71.04923735 51.625 57.5625 C30.73560561 43.93254054 7.74701679 38.02075419 -16.9375 42.5625 C-32.0493139 46.03984212 -47.8095798 52.65498527 -58.6875 64.08203125 C-60.0625 65.375 -60.0625 65.375 -62.0625 65.375 C-62.330625 65.96925781 -62.59875 66.56351562 -62.875 67.17578125 C-64.07311411 69.39465705 -65.29878332 70.7775848 -67.0625 72.5625 C-71.35298946 77.2918913 -74.30903357 82.70816943 -77.33398438 88.2956543 C-80.50402404 93.9791746 -83.6679542 97.58924368 -89.53515625 100.67578125 C-92.6122711 101.52710051 -95.30923881 101.60384084 -98.5 101.5625 C-99.59183594 101.55605469 -100.68367187 101.54960938 -101.80859375 101.54296875 C-104.97057826 101.37974506 -107.94352036 100.89953733 -111.0625 100.375 C-129.46503103 99.04810355 -146.66333366 103.71312189 -161.04296875 115.60546875 C-161.70941406 116.18941406 -162.37585938 116.77335937 -163.0625 117.375 C-163.67738281 117.90738281 -164.29226562 118.43976563 -164.92578125 118.98828125 C-176.47180918 129.71507882 -181.49720171 143.96586744 -184.54150391 158.98876953 C-186.03297047 165.99041811 -188.50259066 171.57385476 -194.0625 176.375 C-201.2176965 179.82923279 -209.16189077 179.42154844 -216.9375 179.1875 C-229.74148048 179.13152631 -240.84100829 183.85559776 -250.3125 192.40625 C-260.48757167 203.04382493 -264.58142165 215.36813826 -264.3046875 229.7890625 C-263.46262387 242.25703686 -258.477845 254.23098187 -249.12890625 262.78515625 C-236.73588028 272.32005525 -224.78216462 274.81939894 -209.5006237 274.75512505 C-207.09817754 274.74588543 -204.69649064 274.75638115 -202.29408264 274.77174377 C-195.47235032 274.8114997 -188.65068653 274.81304803 -181.82885742 274.81079102 C-177.63386762 274.81073964 -173.4392929 274.83003384 -169.24441719 274.86012459 C-166.89458805 274.87084402 -164.54558673 274.85888773 -162.19578552 274.84629822 C-153.34063856 274.86818468 -144.713612 275.17529575 -137.80859375 281.41015625 C-137.16083984 282.41369141 -137.16083984 282.41369141 -136.5 283.4375 C-136.04496094 284.10910156 -135.58992187 284.78070313 -135.12109375 285.47265625 C-132.32356949 290.49994154 -132.62119448 295.78245546 -133.0625 301.375 C-135.12388569 307.23367513 -138.72424787 311.01101959 -144.0625 314.125 C-148.92051998 316.14917499 -153.27152821 316.50255699 -158.51074219 316.52026367 C-160.43995514 316.52983345 -160.43995514 316.52983345 -162.40814209 316.53959656 C-163.80855267 316.5411271 -165.20896377 316.54224006 -166.609375 316.54296875 C-168.06365999 316.54618815 -169.51794467 316.54955272 -170.972229 316.55305481 C-174.02527615 316.55903914 -177.07829506 316.56089583 -180.13134766 316.56030273 C-183.99370298 316.56020209 -187.85587041 316.57375533 -191.71818161 316.59107494 C-194.72815738 316.60235213 -197.73809032 316.60421707 -200.74808502 316.60369301 C-202.16865933 316.60485346 -203.58923549 316.6091626 -205.00978851 316.61702538 C-218.3919871 316.68406176 -232.54118589 316.339165 -245.25 311.75 C-245.99209717 311.48985107 -246.73419434 311.22970215 -247.4987793 310.96166992 C-269.82437577 302.78815811 -287.11660455 286.63872358 -297.48193359 265.35913086 C-307.02015713 244.64259306 -308.72790124 218.93841845 -301.0625 197.375 C-300.63839844 196.18003906 -300.21429688 194.98507813 -299.77734375 193.75390625 C-290.77268069 170.85346788 -273.2797524 154.03150546 -251.01269531 144.18408203 C-241.51172729 140.2423935 -232.30830373 138.19834821 -222.0625 138.375 C-221.95873047 137.82030029 -221.85496094 137.26560059 -221.74804688 136.6940918 C-220.62858948 131.16062325 -218.99995895 126.27240881 -216.5625 121.1875 C-216.21356689 120.45700439 -215.86463379 119.72650879 -215.50512695 118.97387695 C-202.40851718 92.47260349 -179.57952611 73.3998181 -151.7734375 63.8828125 C-143.19373952 61.07797742 -135.10583846 59.29679048 -126.078125 59.3671875 C-115.05525211 59.96577398 -115.05525211 59.96577398 -105.1328125 56.29296875 C-103.15373616 53.42289746 -101.65256226 50.47504944 -100.0625 47.375 C-98.31152321 45.24630865 -96.57705614 43.24273353 -94.6875 41.25 C-94.21562256 40.74573486 -93.74374512 40.24146973 -93.25756836 39.72192383 C-68.53520909 13.58152094 -35.89911094 -0.05151482 0 0 Z " fill="#323232" transform="translate(305.0625,-0.375)"/>
<path d="M0 0 C1.11696762 0.00222061 2.23393524 0.00444122 3.38475037 0.00672913 C4.64598221 0.00680466 5.90721405 0.00688019 7.20666504 0.00695801 C8.59341979 0.01206542 9.98017414 0.01728142 11.3669281 0.02259827 C12.77797394 0.0244625 14.18902042 0.02588638 15.60006714 0.02688599 C19.3204272 0.03071072 23.04074845 0.04054062 26.76109314 0.05158997 C30.55482966 0.06180504 34.34857243 0.06638381 38.14231873 0.07142639 C45.59090416 0.08216294 53.03945758 0.09923882 60.48802185 0.12025452 C55.32586609 11.10540634 50.09009371 22.03810888 44.61302185 32.87025452 C40.31293145 41.4107281 36.08293053 49.97918021 31.98802185 58.62025452 C25.69787149 71.89364872 19.08301024 84.99557466 12.48802185 98.12025452 C28.98802185 98.12025452 45.48802185 98.12025452 62.48802185 98.12025452 C59.19603096 104.70423629 55.95526673 110.80851573 51.98802185 116.93275452 C50.92333869 118.59755596 49.85956921 120.262942 48.7966156 121.92884827 C48.25118103 122.78204651 47.70574646 123.63524475 47.14378357 124.51429749 C44.40905388 128.818412 41.72920067 133.15611049 39.05052185 137.49525452 C38.5088739 138.37197815 37.96722595 139.24870178 37.40916443 140.1519928 C36.31118773 141.92951442 35.21344986 143.70718359 34.11595154 145.48500061 C32.52599819 148.05877933 30.93337011 150.63087877 29.33958435 153.20228577 C24.09184319 161.66940027 18.85636188 170.14377479 13.6415863 178.63124084 C7.18979366 189.13161296 0.69913078 199.60579448 -5.84718323 210.04750061 C-9.18633464 215.37973421 -12.50584808 220.72323226 -15.7971344 226.08509827 C-16.15540314 226.66861053 -16.51367188 227.2521228 -16.88279724 227.85331726 C-18.61090624 230.66914169 -20.33641747 233.48649969 -22.05885315 236.30580139 C-25.7518923 242.33268899 -29.53551334 248.27609823 -33.51197815 254.12025452 C-34.55551234 250.88348159 -34.43661597 248.69422826 -33.72109985 245.38728333 C-33.4202523 243.96545746 -33.4202523 243.96545746 -33.11332703 242.51490784 C-32.88531403 241.48200623 -32.65730103 240.44910461 -32.42237854 239.38490295 C-32.18843887 238.29191895 -31.95449921 237.19893494 -31.71347046 236.0728302 C-30.93726111 232.45656308 -30.14850363 228.84315418 -29.3596344 225.22962952 C-28.81934597 222.72444541 -28.27984076 220.21909227 -27.74108887 217.71357727 C-26.46553728 211.79072538 -25.18209217 205.86963777 -23.89481491 199.94932771 C-22.42957531 193.20843087 -20.97442515 186.46536909 -19.52011883 179.72210646 C-16.52862507 165.85237834 -13.52314267 151.98572459 -10.51197815 138.12025452 C-24.70197815 138.12025452 -38.89197815 138.12025452 -53.51197815 138.12025452 C-46.62585306 117.46187924 -46.62585306 117.46187924 -43.9455719 110.30384827 C-43.63364899 109.46279037 -43.32172607 108.62173248 -43.00035095 107.75518799 C-41.98603581 105.02172022 -40.96773213 102.28975714 -39.94947815 99.55775452 C-38.84011675 96.57083106 -37.73186666 93.58349666 -36.62365723 90.59614563 C-35.8392103 88.48172358 -35.05442463 86.36742717 -34.26931763 84.25325012 C-31.1469492 75.84265563 -28.04100242 67.42607376 -24.94166565 59.00697327 C-24.70765863 58.3713616 -24.47365162 57.73574993 -24.23255348 57.0808773 C-22.14430973 51.40851493 -20.0568744 45.73585517 -17.9697113 40.06309509 C-15.50805111 33.3732502 -13.04424835 26.68420782 -10.57453918 19.99732971 C-9.89029284 18.14460962 -9.20661359 16.29167994 -8.52363586 14.43849182 C-7.6723814 12.13080695 -6.81755994 9.82448502 -5.9611969 7.51869202 C-5.50446594 6.2855426 -5.04773499 5.05239319 -4.5771637 3.78187561 C-3.12349212 0.14952918 -3.12349212 0.14952918 0 0 Z " fill="#323232" transform="translate(233.51197814941406,255.87974548339844)"/>
</svg>
