<svg xmlns="http://www.w3.org/2000/svg" xmlnsXlink="http://www.w3.org/1999/xlink" version="1.1" x="0px" y="0px" viewBox="0 0 72 90" style="enable-background:new 0 0 72 72;" xmlSpace="preserve"><g><g><path d="M39.1,60.84l9.02-4.73c1.46-0.77,2.03-2.59,1.26-4.05c-0.16-0.31-0.38-0.57-0.63-0.8l3.71-1.95    c1.95-1.03,2.71-3.45,1.68-5.4c-0.34-0.65-0.84-1.15-1.42-1.51l3.15-1.65c1.95-1.03,2.71-3.45,1.68-5.4    c-0.34-0.65-0.84-1.15-1.42-1.51l0.49-0.26c2.44-1.28,3.38-4.31,2.1-6.75c-0.53-1-1.35-1.73-2.3-2.18l0.91-0.48    c2.44-1.28,3.38-4.31,2.1-6.75c-0.65-1.23-1.74-2.08-2.98-2.45c1.38-1.8,1.68-4.31,0.56-6.44c-1.54-2.93-5.17-4.06-8.1-2.52    L11.73,25.51c-2.93,1.54-4.06,5.17-2.52,8.1c1.07,2.04,3.16,3.21,5.32,3.21c0.94,0,1.89-0.22,2.78-0.69l1.79-0.94    c-0.18,1.07-0.02,2.16,0.49,3.13c0.62,1.18,1.67,2.05,2.94,2.45c0.49,0.15,0.99,0.23,1.49,0.23c0.8,0,1.59-0.19,2.32-0.58    l1.79-0.94c-0.18,1.07-0.02,2.16,0.49,3.13c0.62,1.18,1.67,2.05,2.94,2.45c0.49,0.15,0.99,0.23,1.49,0.23    c0.35,0,0.7-0.04,1.04-0.12c-0.08,0.77,0.07,1.54,0.44,2.24c0.34,0.65,0.83,1.16,1.41,1.52l-0.48,0.25    c-1.95,1.02-2.71,3.45-1.68,5.4c0.34,0.65,0.83,1.16,1.41,1.52l-1.37,0.72c-0.71,0.37-1.23,1-1.47,1.76s-0.16,1.58,0.21,2.29    c0.16,0.31,0.39,0.57,0.64,0.8l-2.83,1.48c-1.46,0.77-2.03,2.59-1.26,4.05c0.54,1.02,1.58,1.6,2.66,1.6    c0.47,0,0.95-0.11,1.39-0.34l5.31-2.79c1.46-0.77,2.03-2.59,1.26-4.05C39.56,61.32,39.35,61.06,39.1,60.84z M16.37,34.37    c-1.95,1.02-4.38,0.27-5.4-1.68s-0.27-4.38,1.68-5.4L49.84,7.76c0.59-0.31,1.23-0.46,1.85-0.46c1.44,0,2.83,0.78,3.55,2.14    c1.03,1.95,0.27,4.38-1.68,5.4l-0.88,0.46c0,0,0,0,0,0L21.69,31.58c0,0,0,0,0,0L16.37,34.37z M25.41,38.66    c-0.71,0.37-1.52,0.45-2.29,0.21c-0.77-0.24-1.39-0.76-1.76-1.47c-0.37-0.71-0.45-1.52-0.21-2.29c0.24-0.76,0.76-1.39,1.47-1.76    l30.99-16.27c0.44-0.23,0.92-0.34,1.39-0.34c1.08,0,2.13,0.58,2.66,1.6c0.77,1.46,0.2,3.28-1.26,4.05L25.41,38.66z M53.07,35.43    c0.3-0.16,0.61-0.23,0.93-0.23c0.72,0,1.42,0.39,1.77,1.07c0.51,0.98,0.13,2.19-0.84,2.7L39,47.34c-0.97,0.51-2.19,0.14-2.7-0.84    c-0.51-0.98-0.14-2.19,0.84-2.7l5.31-2.79L53.07,35.43z M32.15,43.16c-0.77-0.24-1.39-0.76-1.76-1.47    c-0.37-0.71-0.45-1.52-0.21-2.29s0.76-1.39,1.47-1.76L52.9,26.49c0.44-0.23,0.92-0.34,1.39-0.34c1.08,0,2.13,0.58,2.66,1.6    c0.77,1.46,0.2,3.28-1.26,4.05l-14.17,7.44l-5.31,2.79c0,0,0,0,0,0l-1.77,0.93C33.73,43.33,32.91,43.4,32.15,43.16z M38.24,54.51    c-0.47,0.25-1.01,0.3-1.52,0.14c-0.51-0.16-0.93-0.51-1.18-0.98c-0.51-0.98-0.13-2.19,0.84-2.7l3.54-1.86c0,0,0,0,0,0l9.74-5.11    c0.3-0.16,0.61-0.23,0.93-0.23c0.72,0,1.42,0.39,1.77,1.07c0.51,0.98,0.13,2.19-0.84,2.7l-6.2,3.25c0,0,0,0,0,0l-2.37,1.24    L38.24,54.51z M34.33,59.95c-0.13-0.24-0.15-0.51-0.07-0.76c0.08-0.25,0.25-0.46,0.49-0.59l9.14-4.8l2.37-1.24    c0.15-0.08,0.31-0.11,0.46-0.11c0.36,0,0.71,0.19,0.89,0.53c0.26,0.49,0.07,1.09-0.42,1.35l-11.51,6.04    C35.19,60.63,34.58,60.44,34.33,59.95z M37.54,63.92l-5.31,2.79c-0.49,0.25-1.09,0.07-1.35-0.42c-0.26-0.49-0.07-1.09,0.42-1.35    l5.31-2.79c0.15-0.08,0.31-0.11,0.46-0.11c0.36,0,0.71,0.19,0.89,0.53C38.21,63.05,38.02,63.66,37.54,63.92z" fill="#550a0c"/><path d="M61,57c-3.31,0-6,2.69-6,6c0,0.55,0.45,1,1,1s1-0.45,1-1c0-2.21,1.79-4,4-4s4,1.79,4,4s-1.79,4-4,4H49c-0.55,0-1,0.45-1,1    s0.45,1,1,1h12c3.31,0,6-2.69,6-6S64.31,57,61,57z" fill="#550a0c"/><path d="M65,47c-2.21,0-4,1.79-4,4c0,0.55,0.45,1,1,1s1-0.45,1-1c0-1.1,0.9-2,2-2s2,0.9,2,2s-0.9,2-2,2h-7c-0.55,0-1,0.45-1,1    s0.45,1,1,1h7c2.21,0,4-1.79,4-4S67.21,47,65,47z" fill="#550a0c"/><path d="M26,67H15c-1.1,0-2-0.9-2-2s0.9-2,2-2s2,0.9,2,2c0,0.55,0.45,1,1,1s1-0.45,1-1c0-2.21-1.79-4-4-4s-4,1.79-4,4s1.79,4,4,4    h11c0.55,0,1-0.45,1-1S26.55,67,26,67z" fill="#550a0c"/><path d="M21,58c0-0.55-0.45-1-1-1H10c-2.21,0-4-1.79-4-4s1.79-4,4-4s4,1.79,4,4c0,0.55,0.45,1,1,1s1-0.45,1-1c0-3.31-2.69-6-6-6    s-6,2.69-6,6s2.69,6,6,6h10C20.55,59,21,58.55,21,58z" fill="#550a0c"/><path d="M7,11h12c0.55,0,1-0.45,1-1s-0.45-1-1-1H7C5.9,9,5,8.1,5,7s0.9-2,2-2s2,0.9,2,2c0,0.55,0.45,1,1,1s1-0.45,1-1    c0-2.21-1.79-4-4-4S3,4.79,3,7S4.79,11,7,11z" fill="#550a0c"/><path d="M10,15c1.1,0,2,0.9,2,2c0,0.55,0.45,1,1,1s1-0.45,1-1c0-2.21-1.79-4-4-4s-4,1.79-4,4s1.79,4,4,4h5c0.55,0,1-0.45,1-1    s-0.45-1-1-1h-5c-1.1,0-2-0.9-2-2S8.9,15,10,15z" fill="#550a0c"/></g></g></svg>